<svg width="286" height="182" viewBox="0 0 286 182" fill="none" xmlns="http://www.w3.org/2000/svg">
<line x1="10.7643" y1="180.739" x2="285.25" y2="180.739" stroke="#333333" stroke-width="1.5" stroke-linecap="round"/>
<line x1="10.7643" y1="122.341" x2="285.25" y2="122.341" stroke="#333333" stroke-width="1.5" stroke-linecap="round" stroke-dasharray="4 7"/>
<line x1="10.7643" y1="65.542" x2="285.25" y2="65.542" stroke="#333333" stroke-width="1.5" stroke-linecap="round" stroke-dasharray="4 7"/>
<line x1="10.7643" y1="8.74316" x2="285.25" y2="8.74316" stroke="#333333" stroke-width="1.5" stroke-linecap="round" stroke-dasharray="4 7"/>
<path d="M0 45.9932C0 40.4703 4.47715 35.9932 10 35.9932H12.9772C18.5001 35.9932 22.9772 40.4703 22.9772 45.9932V71.9866H0V45.9932Z" fill="#8E73EF"/>
<path d="M0 45.9932C0 40.4703 4.47715 35.9932 10 35.9932H12.9772C18.5001 35.9932 22.9772 40.4703 22.9772 45.9932V71.9866H0V45.9932Z" fill="white" fill-opacity="0.3"/>
<rect y="71.9868" width="22.9772" height="35.9935" fill="#8E73EF"/>
<rect y="71.9868" width="22.9772" height="35.9935" fill="white" fill-opacity="0.6"/>
<rect y="107.979" width="22.9772" height="35.9935" fill="#8E73EF"/>
<rect y="107.979" width="22.9772" height="35.9935" fill="white" fill-opacity="0.7"/>
<rect y="143.974" width="22.9772" height="35.9935" fill="#8E73EF"/>
<rect y="143.974" width="22.9772" height="35.9935" fill="white" fill-opacity="0.8"/>
<path d="M50.5581 81.9863C50.5581 76.4635 55.0353 71.9863 60.5581 71.9863H63.5353C69.0582 71.9863 73.5353 76.4635 73.5353 81.9863V107.98H50.5581V81.9863Z" fill="#8E73EF"/>
<path d="M50.5581 81.9863C50.5581 76.4635 55.0353 71.9863 60.5581 71.9863H63.5353C69.0582 71.9863 73.5353 76.4635 73.5353 81.9863V107.98H50.5581V81.9863Z" fill="white" fill-opacity="0.6"/>
<rect x="50.5581" y="107.979" width="22.9772" height="35.9935" fill="#8E73EF"/>
<rect x="50.5581" y="107.979" width="22.9772" height="35.9935" fill="white" fill-opacity="0.7"/>
<rect x="50.5581" y="143.973" width="22.9772" height="35.9935" fill="#8E73EF"/>
<rect x="50.5581" y="143.973" width="22.9772" height="35.9935" fill="white" fill-opacity="0.8"/>
<path d="M101.117 10C101.117 4.47715 105.594 0 111.117 0H114.094C119.617 0 124.094 4.47715 124.094 10V35.9935H101.117V10Z" fill="#8E73EF"/>
<rect x="101.117" y="35.9932" width="22.9772" height="35.9935" fill="#8E73EF"/>
<rect x="101.117" y="35.9932" width="22.9772" height="35.9935" fill="white" fill-opacity="0.3"/>
<rect x="101.117" y="71.9868" width="22.9772" height="35.9935" fill="#8E73EF"/>
<rect x="101.117" y="71.9868" width="22.9772" height="35.9935" fill="white" fill-opacity="0.6"/>
<rect x="101.117" y="107.979" width="22.9772" height="35.9935" fill="#8E73EF"/>
<rect x="101.117" y="107.979" width="22.9772" height="35.9935" fill="white" fill-opacity="0.7"/>
<rect x="101.117" y="143.975" width="22.9772" height="35.9935" fill="#8E73EF"/>
<rect x="101.117" y="143.975" width="22.9772" height="35.9935" fill="white" fill-opacity="0.8"/>
<path d="M151.676 81.9863C151.676 76.4635 156.153 71.9863 161.676 71.9863H164.653C170.176 71.9863 174.653 76.4635 174.653 81.9863V107.98H151.676V81.9863Z" fill="#8E73EF"/>
<path d="M151.676 81.9863C151.676 76.4635 156.153 71.9863 161.676 71.9863H164.653C170.176 71.9863 174.653 76.4635 174.653 81.9863V107.98H151.676V81.9863Z" fill="white" fill-opacity="0.6"/>
<rect x="151.676" y="107.979" width="22.9772" height="35.9935" fill="#8E73EF"/>
<rect x="151.676" y="107.979" width="22.9772" height="35.9935" fill="white" fill-opacity="0.7"/>
<rect x="151.676" y="143.973" width="22.9772" height="35.9935" fill="#8E73EF"/>
<rect x="151.676" y="143.973" width="22.9772" height="35.9935" fill="white" fill-opacity="0.8"/>
<path d="M202.234 81.9863C202.234 76.4635 206.712 71.9863 212.234 71.9863H215.212C220.735 71.9863 225.212 76.4635 225.212 81.9863V107.98H202.234V81.9863Z" fill="#8E73EF"/>
<path d="M202.234 81.9863C202.234 76.4635 206.712 71.9863 212.234 71.9863H215.212C220.735 71.9863 225.212 76.4635 225.212 81.9863V107.98H202.234V81.9863Z" fill="white" fill-opacity="0.6"/>
<rect x="202.234" y="107.979" width="22.9772" height="35.9935" fill="#8E73EF"/>
<rect x="202.234" y="107.979" width="22.9772" height="35.9935" fill="white" fill-opacity="0.7"/>
<rect x="202.234" y="143.973" width="22.9772" height="35.9935" fill="#8E73EF"/>
<rect x="202.234" y="143.973" width="22.9772" height="35.9935" fill="white" fill-opacity="0.8"/>
<path d="M252.792 81.9863C252.792 76.4635 257.27 71.9863 262.792 71.9863H265.77C271.293 71.9863 275.77 76.4635 275.77 81.9863V107.98H252.792V81.9863Z" fill="#8E73EF"/>
<path d="M252.792 81.9863C252.792 76.4635 257.27 71.9863 262.792 71.9863H265.77C271.293 71.9863 275.77 76.4635 275.77 81.9863V107.98H252.792V81.9863Z" fill="white" fill-opacity="0.6"/>
<rect x="252.792" y="107.979" width="22.9772" height="35.9935" fill="#8E73EF"/>
<rect x="252.792" y="107.979" width="22.9772" height="35.9935" fill="white" fill-opacity="0.7"/>
<rect x="252.792" y="143.973" width="22.9772" height="35.9935" fill="#8E73EF"/>
<rect x="252.792" y="143.973" width="22.9772" height="35.9935" fill="white" fill-opacity="0.8"/>
<path opacity="0.05" d="M80.1745 53.4794C47.4026 109.242 20.7287 79.1592 11.4882 53.7121V179.848H264.506V90.1531C261.383 92.6835 254.202 114.566 239.619 95.2453C215.782 59.2877 195.653 86.6708 189.649 95.2453C183.646 103.82 163.693 125.948 148.508 76.1601C133.323 26.3725 122.905 18.9046 117.431 18.3514C111.958 17.7982 102.246 13.9258 80.1745 53.4794Z" fill="url(#paint0_linear_279_4835)"/>
<path d="M11.4882 53.7121C20.7287 79.1592 47.4026 109.242 80.1745 53.4794C102.246 13.9258 111.958 17.7982 117.431 18.3514C122.905 18.9046 133.323 26.3725 148.508 76.1601C163.693 125.948 183.646 103.82 189.649 95.2453C195.653 86.6708 215.782 59.2877 239.619 95.2453C254.202 114.566 261.383 92.6835 264.506 90.1531" stroke="#8E73EF" stroke-width="2" stroke-linecap="round"/>
<path d="M11.4881 57.6579C12.4176 57.6579 13.1176 57.0694 13.536 56.4141C13.9616 55.7473 14.1922 54.8869 14.1922 53.9884C14.1922 53.0898 13.9616 52.2295 13.536 51.5626C13.1176 50.9073 12.4176 50.3188 11.4881 50.3188C10.5585 50.3188 9.8585 50.9073 9.44017 51.5626C9.0145 52.2295 8.78394 53.0898 8.78394 53.9884C8.78394 54.8869 9.0145 55.7473 9.44017 56.4141C9.8585 57.0694 10.5585 57.6579 11.4881 57.6579Z" fill="#FF718B" stroke="white" stroke-width="2"/>
<path d="M62.5044 79.8869C63.434 79.8869 64.134 79.2984 64.5523 78.6431C64.978 77.9763 65.2086 77.1159 65.2086 76.2174C65.2086 75.3188 64.978 74.4585 64.5523 73.7917C64.134 73.1363 63.434 72.5479 62.5044 72.5479C61.5749 72.5479 60.8749 73.1363 60.4565 73.7917C60.0309 74.4585 59.8003 75.3188 59.8003 76.2174C59.8003 77.1159 60.0309 77.9763 60.4565 78.6431C60.8749 79.2984 61.5749 79.8869 62.5044 79.8869Z" fill="#FF718B" stroke="white" stroke-width="2"/>
<path d="M112.606 21.6642C113.535 21.6642 114.235 21.0757 114.653 20.4204C115.079 19.7536 115.31 18.8933 115.31 17.9947C115.31 17.0961 115.079 16.2358 114.653 15.569C114.235 14.9137 113.535 14.3252 112.606 14.3252C111.676 14.3252 110.976 14.9137 110.558 15.569C110.132 16.2358 109.901 17.0961 109.901 17.9947C109.901 18.8933 110.132 19.7536 110.558 20.4204C110.976 21.0757 111.676 21.6642 112.606 21.6642Z" fill="#FF718B" stroke="white" stroke-width="2"/>
<path d="M163.164 107.706C164.094 107.706 164.794 107.117 165.212 106.462C165.638 105.795 165.868 104.935 165.868 104.036C165.868 103.138 165.638 102.277 165.212 101.611C164.794 100.955 164.094 100.367 163.164 100.367C162.235 100.367 161.535 100.955 161.116 101.611C160.691 102.277 160.46 103.138 160.46 104.036C160.46 104.935 160.691 105.795 161.116 106.462C161.535 107.117 162.235 107.706 163.164 107.706Z" fill="#FF718B" stroke="white" stroke-width="2"/>
<path d="M213.723 80.9621C214.652 80.9621 215.352 80.3736 215.77 79.7183C216.196 79.0515 216.427 78.1911 216.427 77.2926C216.427 76.394 216.196 75.5337 215.77 74.8668C215.352 74.2115 214.652 73.623 213.723 73.623C212.793 73.623 212.093 74.2115 211.675 74.8668C211.249 75.5337 211.018 76.394 211.018 77.2926C211.018 78.1911 211.249 79.0515 211.675 79.7183C212.093 80.3736 212.793 80.9621 213.723 80.9621Z" fill="#FF718B" stroke="white" stroke-width="2"/>
<path d="M264.281 93.6515C265.21 93.6515 265.91 93.063 266.329 92.4077C266.754 91.7409 266.985 90.8806 266.985 89.982C266.985 89.0834 266.754 88.2231 266.329 87.5563C265.91 86.901 265.21 86.3125 264.281 86.3125C263.351 86.3125 262.651 86.901 262.233 87.5563C261.807 88.2231 261.577 89.0834 261.577 89.982C261.577 90.8806 261.807 91.7409 262.233 92.4077C262.651 93.063 263.351 93.6515 264.281 93.6515Z" fill="#FF718B" stroke="white" stroke-width="2"/>
<defs>
<linearGradient id="paint0_linear_279_4835" x1="137.997" y1="17.9951" x2="137.997" y2="179.848" gradientUnits="userSpaceOnUse">
<stop stop-color="#1B1C1E"/>
<stop offset="1" stop-color="#1B1C1E" stop-opacity="0"/>
</linearGradient>
</defs>
</svg>
