<svg width="650" height="183" viewBox="0 0 650 183" fill="none" xmlns="http://www.w3.org/2000/svg">
<line x1="24.0696" y1="181.368" x2="649.25" y2="181.368" stroke="#333333" stroke-width="1.5" stroke-linecap="round"/>
<line x1="24.0696" y1="122.97" x2="649.25" y2="122.97" stroke="#333333" stroke-width="1.5" stroke-linecap="round" stroke-dasharray="4 7"/>
<line x1="24.0696" y1="66.1709" x2="649.25" y2="66.1709" stroke="#333333" stroke-width="1.5" stroke-linecap="round" stroke-dasharray="4 7"/>
<line x1="24.0696" y1="9.37207" x2="649.25" y2="9.37207" stroke="#333333" stroke-width="1.5" stroke-linecap="round" stroke-dasharray="4 7"/>
<path d="M0.580078 46.6221C0.580078 41.0992 5.05723 36.6221 10.5801 36.6221H42.7544C48.2772 36.6221 52.7544 41.0992 52.7544 46.6221V72.6156H0.580078V46.6221Z" fill="#8E73EF"/>
<path d="M0.580078 46.6221C0.580078 41.0992 5.05723 36.6221 10.5801 36.6221H42.7544C48.2772 36.6221 52.7544 41.0992 52.7544 46.6221V72.6156H0.580078V46.6221Z" fill="white" fill-opacity="0.3"/>
<rect x="0.580078" y="72.6157" width="52.1743" height="35.9935" fill="#8E73EF"/>
<rect x="0.580078" y="72.6157" width="52.1743" height="35.9935" fill="white" fill-opacity="0.6"/>
<rect x="0.580078" y="108.608" width="52.1743" height="35.9935" fill="#8E73EF"/>
<rect x="0.580078" y="108.608" width="52.1743" height="35.9935" fill="white" fill-opacity="0.7"/>
<rect x="0.580078" y="144.603" width="52.1743" height="35.9935" fill="#8E73EF"/>
<rect x="0.580078" y="144.603" width="52.1743" height="35.9935" fill="white" fill-opacity="0.8"/>
<path d="M115.382 82.6152C115.382 77.0924 119.859 72.6152 125.382 72.6152H157.556C163.079 72.6152 167.556 77.0924 167.556 82.6152V108.609H115.382V82.6152Z" fill="#8E73EF"/>
<path d="M115.382 82.6152C115.382 77.0924 119.859 72.6152 125.382 72.6152H157.556C163.079 72.6152 167.556 77.0924 167.556 82.6152V108.609H115.382V82.6152Z" fill="white" fill-opacity="0.6"/>
<rect x="115.382" y="108.608" width="52.1743" height="35.9935" fill="#8E73EF"/>
<rect x="115.382" y="108.608" width="52.1743" height="35.9935" fill="white" fill-opacity="0.7"/>
<rect x="115.382" y="144.602" width="52.1743" height="35.9935" fill="#8E73EF"/>
<rect x="115.382" y="144.602" width="52.1743" height="35.9935" fill="white" fill-opacity="0.8"/>
<path d="M230.187 10.6289C230.187 5.10606 234.664 0.628906 240.187 0.628906H272.361C277.884 0.628906 282.361 5.10606 282.361 10.6289V36.6224H230.187V10.6289Z" fill="#8E73EF"/>
<rect x="230.187" y="36.6221" width="52.1743" height="35.9935" fill="#8E73EF"/>
<rect x="230.187" y="36.6221" width="52.1743" height="35.9935" fill="white" fill-opacity="0.3"/>
<rect x="230.187" y="72.6157" width="52.1743" height="35.9935" fill="#8E73EF"/>
<rect x="230.187" y="72.6157" width="52.1743" height="35.9935" fill="white" fill-opacity="0.6"/>
<rect x="230.187" y="108.608" width="52.1743" height="35.9935" fill="#8E73EF"/>
<rect x="230.187" y="108.608" width="52.1743" height="35.9935" fill="white" fill-opacity="0.7"/>
<rect x="230.187" y="144.604" width="52.1743" height="35.9935" fill="#8E73EF"/>
<rect x="230.187" y="144.604" width="52.1743" height="35.9935" fill="white" fill-opacity="0.8"/>
<path d="M344.991 82.6152C344.991 77.0924 349.468 72.6152 354.991 72.6152H387.165C392.688 72.6152 397.165 77.0924 397.165 82.6152V108.609H344.991V82.6152Z" fill="#8E73EF"/>
<path d="M344.991 82.6152C344.991 77.0924 349.468 72.6152 354.991 72.6152H387.165C392.688 72.6152 397.165 77.0924 397.165 82.6152V108.609H344.991V82.6152Z" fill="white" fill-opacity="0.6"/>
<rect x="344.991" y="108.608" width="52.1743" height="35.9935" fill="#8E73EF"/>
<rect x="344.991" y="108.608" width="52.1743" height="35.9935" fill="white" fill-opacity="0.7"/>
<rect x="344.991" y="144.602" width="52.1743" height="35.9935" fill="#8E73EF"/>
<rect x="344.991" y="144.602" width="52.1743" height="35.9935" fill="white" fill-opacity="0.8"/>
<path d="M459.793 82.6152C459.793 77.0924 464.271 72.6152 469.793 72.6152H501.968C507.491 72.6152 511.968 77.0924 511.968 82.6152V108.609H459.793V82.6152Z" fill="#8E73EF"/>
<path d="M459.793 82.6152C459.793 77.0924 464.271 72.6152 469.793 72.6152H501.968C507.491 72.6152 511.968 77.0924 511.968 82.6152V108.609H459.793V82.6152Z" fill="white" fill-opacity="0.6"/>
<rect x="459.793" y="108.608" width="52.1743" height="35.9935" fill="#8E73EF"/>
<rect x="459.793" y="108.608" width="52.1743" height="35.9935" fill="white" fill-opacity="0.7"/>
<rect x="459.793" y="144.602" width="52.1743" height="35.9935" fill="#8E73EF"/>
<rect x="459.793" y="144.602" width="52.1743" height="35.9935" fill="white" fill-opacity="0.8"/>
<path d="M574.596 82.6152C574.596 77.0924 579.073 72.6152 584.596 72.6152H616.77C622.293 72.6152 626.77 77.0924 626.77 82.6152V108.609H574.596V82.6152Z" fill="#8E73EF"/>
<path d="M574.596 82.6152C574.596 77.0924 579.073 72.6152 584.596 72.6152H616.77C622.293 72.6152 626.77 77.0924 626.77 82.6152V108.609H574.596V82.6152Z" fill="white" fill-opacity="0.6"/>
<rect x="574.596" y="108.608" width="52.1743" height="35.9935" fill="#8E73EF"/>
<rect x="574.596" y="108.608" width="52.1743" height="35.9935" fill="white" fill-opacity="0.7"/>
<rect x="574.596" y="144.602" width="52.1743" height="35.9935" fill="#8E73EF"/>
<rect x="574.596" y="144.602" width="52.1743" height="35.9935" fill="white" fill-opacity="0.8"/>
<path opacity="0.05" d="M182.632 54.1083C108.217 109.87 47.6486 79.7881 26.6662 54.341V180.477H601.192V90.782C594.101 93.3124 577.796 115.195 544.683 95.8743C490.556 59.9166 444.849 87.2997 431.216 95.8743C417.584 104.449 372.278 126.577 337.797 76.789C303.316 27.0014 279.66 19.5335 267.231 18.9803C254.802 18.4271 232.75 14.5547 182.632 54.1083Z" fill="url(#paint0_linear_131_4868)"/>
<path d="M26.6662 54.341C47.6486 79.7881 108.217 109.87 182.632 54.1083C232.75 14.5547 254.802 18.4271 267.231 18.9803C279.66 19.5335 303.316 27.0014 337.797 76.789C372.278 126.577 417.584 104.449 431.216 95.8743C444.849 87.2997 490.556 59.9166 544.683 95.8743C577.796 115.195 594.101 93.3124 601.192 90.782" stroke="#8E73EF" stroke-width="2" stroke-linecap="round"/>
<path d="M26.6659 58.2868C27.9114 58.2868 29.0826 57.9402 29.97 57.328C30.8532 56.7187 31.5355 55.777 31.5355 54.6173C31.5355 53.4576 30.8532 52.5158 29.97 51.9065C29.0826 51.2943 27.9114 50.9478 26.6659 50.9478C25.4204 50.9478 24.2492 51.2943 23.3618 51.9065C22.4787 52.5158 21.7963 53.4576 21.7963 54.6173C21.7963 55.777 22.4787 56.7187 23.3618 57.328C24.2492 57.9402 25.4204 58.2868 26.6659 58.2868Z" fill="#FF718B" stroke="white" stroke-width="2"/>
<path d="M142.509 80.5158C143.754 80.5158 144.925 80.1692 145.813 79.557C146.696 78.9477 147.378 78.006 147.378 76.8463C147.378 75.6866 146.696 74.7448 145.813 74.1355C144.925 73.5233 143.754 73.1768 142.509 73.1768C141.263 73.1768 140.092 73.5233 139.205 74.1355C138.321 74.7448 137.639 75.6866 137.639 76.8463C137.639 78.006 138.321 78.9477 139.205 79.557C140.092 80.1692 141.263 80.5158 142.509 80.5158Z" fill="#FF718B" stroke="white" stroke-width="2"/>
<path d="M256.273 22.2931C257.519 22.2931 258.69 21.9465 259.577 21.3344C260.46 20.7251 261.143 19.7833 261.143 18.6236C261.143 17.4639 260.46 16.5221 259.577 15.9129C258.69 15.3007 257.519 14.9541 256.273 14.9541C255.028 14.9541 253.856 15.3007 252.969 15.9129C252.086 16.5221 251.403 17.4639 251.403 18.6236C251.403 19.7833 252.086 20.7251 252.969 21.3344C253.856 21.9465 255.028 22.2931 256.273 22.2931Z" fill="#FF718B" stroke="white" stroke-width="2"/>
<path d="M371.077 108.335C372.322 108.335 373.494 107.988 374.381 107.376C375.264 106.767 375.946 105.825 375.946 104.665C375.946 103.505 375.264 102.564 374.381 101.954C373.494 101.342 372.322 100.996 371.077 100.996C369.831 100.996 368.66 101.342 367.773 101.954C366.89 102.564 366.207 103.505 366.207 104.665C366.207 105.825 366.89 106.767 367.773 107.376C368.66 107.988 369.831 108.335 371.077 108.335Z" fill="#FF718B" stroke="white" stroke-width="2"/>
<path d="M485.88 81.591C487.125 81.591 488.297 81.2444 489.184 80.6322C490.067 80.0229 490.749 79.0812 490.749 77.9215C490.749 76.7618 490.067 75.82 489.184 75.2107C488.297 74.5985 487.125 74.252 485.88 74.252C484.634 74.252 483.463 74.5985 482.576 75.2107C481.693 75.82 481.01 76.7618 481.01 77.9215C481.01 79.0812 481.693 80.0229 482.576 80.6322C483.463 81.2444 484.634 81.591 485.88 81.591Z" fill="#FF718B" stroke="white" stroke-width="2"/>
<path d="M600.682 94.2804C601.928 94.2804 603.099 93.9338 603.986 93.3217C604.87 92.7124 605.552 91.7706 605.552 90.6109C605.552 89.4512 604.87 88.5094 603.986 87.9002C603.099 87.288 601.928 86.9414 600.682 86.9414C599.437 86.9414 598.266 87.288 597.378 87.9002C596.495 88.5094 595.813 89.4512 595.813 90.6109C595.813 91.7706 596.495 92.7124 597.378 93.3217C598.266 93.9338 599.437 94.2804 600.682 94.2804Z" fill="#FF718B" stroke="white" stroke-width="2"/>
<defs>
<linearGradient id="paint0_linear_131_4868" x1="313.929" y1="18.624" x2="313.929" y2="180.477" gradientUnits="userSpaceOnUse">
<stop stop-color="#1B1C1E"/>
<stop offset="1" stop-color="#1B1C1E" stop-opacity="0"/>
</linearGradient>
</defs>
</svg>
