<svg width="298" height="245" viewBox="0 0 298 245" fill="none" xmlns="http://www.w3.org/2000/svg">
<path d="M149 0.776367C165.937 0.776366 182.689 4.30401 198.188 11.1346C213.686 17.9651 227.593 27.9489 239.021 40.4498C250.449 52.9508 259.148 67.6949 264.564 83.7429C269.979 99.7909 271.994 116.791 270.478 133.66L149 122.744L149 0.776367Z" fill="#7086FD"/>
<path d="M270.478 133.66C267.911 162.22 255.364 188.962 235.04 209.191C214.716 229.419 187.915 241.84 159.343 244.271L149 122.744L270.478 133.66Z" fill="#6FD195"/>
<path d="M159.343 244.271C136.259 246.236 113.092 241.585 92.5542 230.863C72.0164 220.141 54.9573 203.791 43.3732 183.727L149 122.744L159.343 244.271Z" fill="#FFAE4C"/>
<path d="M43.3732 183.727C35.0984 169.395 29.827 153.528 27.8798 137.094C25.9327 120.659 27.3506 104 32.0472 88.1306L149 122.744L43.3732 183.727Z" fill="#E8E3FB"/>
<path d="M32.0472 88.1306C38.1784 67.414 49.7025 48.6978 65.4406 33.8963L149 122.744L32.0472 88.1306Z" fill="#8E73EF"/>
<path d="M65.4406 33.8963C74.9606 24.9429 85.8578 17.5777 97.7152 12.0825L149 122.744L65.4406 33.8963Z" fill="#AA98EC"/>
<path d="M97.7152 12.0825C106.775 7.88402 116.315 4.8139 126.123 2.94106L149 122.744L97.7152 12.0825Z" fill="#FF718B"/>
<path d="M126.123 2.94106C133.663 1.50115 141.323 0.776367 149 0.776367V122.744L126.123 2.94106Z" fill="#AA98EC"/>
<path d="M177.846 66.6777V59.2858H180.43C180.945 59.2858 181.37 59.3748 181.704 59.5529C182.039 59.7285 182.288 59.9655 182.451 60.2639C182.615 60.5599 182.697 60.8883 182.697 61.2493C182.697 61.5669 182.64 61.8292 182.527 62.0361C182.416 62.243 182.27 62.4067 182.087 62.527C181.906 62.6473 181.71 62.7363 181.498 62.7941V62.8663C181.725 62.8807 181.952 62.9601 182.181 63.1045C182.409 63.2489 182.601 63.4558 182.755 63.7253C182.909 63.9948 182.986 64.3244 182.986 64.7142C182.986 65.0848 182.901 65.4181 182.733 65.714C182.564 66.01 182.299 66.2446 181.935 66.4179C181.572 66.5911 181.099 66.6777 180.517 66.6777H177.846ZM178.741 65.8837H180.517C181.101 65.8837 181.517 65.7706 181.762 65.5444C182.01 65.3158 182.134 65.0391 182.134 64.7142C182.134 64.464 182.07 64.233 181.942 64.0213C181.815 63.8071 181.633 63.6363 181.397 63.5087C181.162 63.3788 180.882 63.3138 180.56 63.3138H178.741V65.8837ZM178.741 62.5342H180.401C180.671 62.5342 180.914 62.4813 181.13 62.3754C181.349 62.2695 181.523 62.1203 181.65 61.9278C181.78 61.7353 181.845 61.5091 181.845 61.2493C181.845 60.9244 181.732 60.6489 181.506 60.4227C181.279 60.1941 180.921 60.0798 180.43 60.0798H178.741V62.5342ZM185.972 66.8077C185.621 66.8077 185.302 66.7415 185.016 66.6092C184.729 66.4744 184.502 66.2807 184.334 66.0281C184.165 65.773 184.081 65.465 184.081 65.1041C184.081 64.7864 184.144 64.529 184.269 64.3317C184.394 64.1319 184.561 63.9755 184.77 63.8624C184.98 63.7493 185.211 63.6651 185.463 63.6098C185.718 63.552 185.975 63.5063 186.232 63.4726C186.569 63.4293 186.842 63.3968 187.051 63.3752C187.263 63.3511 187.417 63.3114 187.513 63.2561C187.612 63.2007 187.661 63.1045 187.661 62.9673V62.9384C187.661 62.5823 187.564 62.3056 187.369 62.1083C187.177 61.911 186.884 61.8123 186.492 61.8123C186.085 61.8123 185.767 61.9014 185.536 62.0794C185.305 62.2575 185.142 62.4476 185.048 62.6497L184.24 62.3609C184.384 62.0241 184.577 61.7618 184.817 61.5741C185.06 61.384 185.325 61.2517 185.611 61.1771C185.9 61.1001 186.184 61.0616 186.463 61.0616C186.641 61.0616 186.846 61.0832 187.077 61.1266C187.31 61.1675 187.535 61.2529 187.752 61.3828C187.971 61.5128 188.152 61.7089 188.297 61.9711C188.441 62.2334 188.513 62.5847 188.513 63.0251V66.6777H187.661V65.927H187.618C187.56 66.0473 187.464 66.176 187.329 66.3132C187.195 66.4503 187.015 66.567 186.792 66.6633C186.568 66.7595 186.295 66.8077 185.972 66.8077ZM186.102 66.0425C186.439 66.0425 186.723 65.9763 186.954 65.844C187.187 65.7116 187.363 65.5408 187.481 65.3314C187.601 65.1221 187.661 64.9019 187.661 64.6709V63.8913C187.625 63.9346 187.546 63.9743 187.423 64.0104C187.303 64.0441 187.163 64.0742 187.005 64.1007C186.848 64.1247 186.695 64.1464 186.546 64.1656C186.399 64.1825 186.28 64.1969 186.189 64.2089C185.967 64.2378 185.761 64.2847 185.568 64.3497C185.378 64.4123 185.224 64.5073 185.106 64.6348C184.991 64.76 184.933 64.9308 184.933 65.1474C184.933 65.4433 185.042 65.6671 185.261 65.8187C185.483 65.9679 185.763 66.0425 186.102 66.0425ZM192.32 66.7932C191.8 66.7932 191.353 66.6705 190.978 66.4251C190.602 66.1796 190.313 65.8416 190.111 65.4109C189.909 64.9801 189.808 64.4881 189.808 63.9346C189.808 63.3716 189.912 62.8747 190.119 62.444C190.328 62.0108 190.619 61.6728 190.992 61.4297C191.367 61.1843 191.805 61.0616 192.306 61.0616C192.696 61.0616 193.047 61.1338 193.36 61.2781C193.673 61.4225 193.929 61.6246 194.128 61.8845C194.328 62.1444 194.452 62.4476 194.5 62.7941H193.648C193.583 62.5414 193.439 62.3176 193.215 62.1227C192.994 61.9254 192.696 61.8268 192.32 61.8268C191.988 61.8268 191.697 61.9134 191.447 62.0866C191.199 62.2575 191.005 62.4993 190.866 62.8121C190.728 63.1225 190.66 63.4871 190.66 63.9058C190.66 64.3341 190.727 64.707 190.862 65.0247C190.999 65.3423 191.192 65.5889 191.44 65.7646C191.69 65.9402 191.983 66.0281 192.32 66.0281C192.542 66.0281 192.743 65.9896 192.923 65.9126C193.103 65.8356 193.256 65.7249 193.381 65.5805C193.506 65.4361 193.596 65.2629 193.648 65.0607H194.5C194.452 65.388 194.333 65.6828 194.143 65.945C193.955 66.2049 193.706 66.4118 193.396 66.5658C193.088 66.7174 192.729 66.7932 192.32 66.7932ZM196.54 64.6565L196.525 63.6026H196.698L199.124 61.1338H200.178L197.593 63.7469H197.521L196.54 64.6565ZM195.745 66.6777V59.2858H196.597V66.6777H195.745ZM199.268 66.6777L197.103 63.9346L197.709 63.3427L200.351 66.6777H199.268ZM201.39 66.6777V59.2858H205.851V60.0798H202.285V62.5775H205.62V63.3716H202.285V65.8837H205.909V66.6777H201.39ZM208.2 63.3427V66.6777H207.349V61.1338H208.172V62H208.244C208.374 61.7185 208.571 61.4923 208.836 61.3215C209.1 61.1482 209.442 61.0616 209.861 61.0616C210.236 61.0616 210.565 61.1386 210.846 61.2926C211.128 61.4442 211.347 61.6752 211.503 61.9856C211.659 62.2936 211.738 62.6834 211.738 63.155V66.6777H210.886V63.2128C210.886 62.7772 210.773 62.4379 210.547 62.1949C210.32 61.9495 210.01 61.8268 209.615 61.8268C209.343 61.8268 209.1 61.8857 208.886 62.0036C208.674 62.1215 208.507 62.2936 208.385 62.5198C208.262 62.7459 208.2 63.0203 208.2 63.3427ZM215.388 66.7932C214.926 66.7932 214.518 66.6765 214.164 66.4431C213.81 66.2073 213.534 65.8753 213.334 65.4469C213.134 65.0162 213.034 64.5073 213.034 63.9202C213.034 63.3379 213.134 62.8326 213.334 62.4043C213.534 61.976 213.811 61.6451 214.168 61.4117C214.524 61.1783 214.935 61.0616 215.402 61.0616C215.763 61.0616 216.048 61.1217 216.257 61.2421C216.469 61.36 216.63 61.4947 216.741 61.6463C216.854 61.7955 216.942 61.9182 217.005 62.0145H217.077V59.2858H217.929V66.6777H217.106V65.8259H217.005C216.942 65.927 216.853 66.0545 216.737 66.2085C216.622 66.3601 216.457 66.4961 216.243 66.6164C216.029 66.7343 215.744 66.7932 215.388 66.7932ZM215.503 66.0281C215.845 66.0281 216.134 65.939 216.369 65.761C216.605 65.5805 216.784 65.3314 216.907 65.0138C217.03 64.6938 217.091 64.3244 217.091 63.9058C217.091 63.4919 217.031 63.1297 216.911 62.8193C216.79 62.5065 216.612 62.2635 216.377 62.0902C216.141 61.9146 215.85 61.8268 215.503 61.8268C215.142 61.8268 214.841 61.9194 214.601 62.1047C214.363 62.2876 214.183 62.5366 214.063 62.8518C213.945 63.1646 213.886 63.5159 213.886 63.9058C213.886 64.3004 213.946 64.6589 214.067 64.9813C214.189 65.3014 214.37 65.5564 214.608 65.7465C214.849 65.9342 215.147 66.0281 215.503 66.0281Z" fill="black"/>
<path d="M95.9034 183.562V176.171H100.336V176.965H96.7985V179.462H100.004V180.256H96.7985V183.562H95.9034ZM101.694 183.562V178.019H102.517V178.856H102.574C102.675 178.582 102.858 178.359 103.123 178.188C103.388 178.017 103.686 177.932 104.018 177.932C104.081 177.932 104.159 177.933 104.253 177.936C104.347 177.938 104.418 177.942 104.466 177.946V178.813C104.437 178.805 104.371 178.795 104.267 178.78C104.166 178.763 104.059 178.755 103.946 178.755C103.676 178.755 103.436 178.811 103.224 178.924C103.015 179.035 102.849 179.189 102.726 179.386C102.606 179.581 102.546 179.804 102.546 180.054V183.562H101.694ZM107.559 183.678C107.058 183.678 106.619 183.559 106.242 183.321C105.866 183.082 105.573 182.749 105.361 182.321C105.151 181.893 105.047 181.392 105.047 180.819C105.047 180.242 105.151 179.738 105.361 179.307C105.573 178.876 105.866 178.542 106.242 178.304C106.619 178.065 107.058 177.946 107.559 177.946C108.059 177.946 108.497 178.065 108.873 178.304C109.251 178.542 109.544 178.876 109.753 179.307C109.965 179.738 110.071 180.242 110.071 180.819C110.071 181.392 109.965 181.893 109.753 182.321C109.544 182.749 109.251 183.082 108.873 183.321C108.497 183.559 108.059 183.678 107.559 183.678ZM107.559 182.913C107.939 182.913 108.252 182.815 108.497 182.62C108.743 182.426 108.924 182.169 109.042 181.852C109.16 181.534 109.219 181.19 109.219 180.819C109.219 180.449 109.16 180.104 109.042 179.784C108.924 179.463 108.743 179.205 108.497 179.007C108.252 178.81 107.939 178.712 107.559 178.712C107.179 178.712 106.866 178.81 106.62 179.007C106.375 179.205 106.193 179.463 106.075 179.784C105.958 180.104 105.899 180.449 105.899 180.819C105.899 181.19 105.958 181.534 106.075 181.852C106.193 182.169 106.375 182.426 106.62 182.62C106.866 182.815 107.179 182.913 107.559 182.913ZM112.223 180.227V183.562H111.371V178.019H112.194V178.885H112.266C112.396 178.603 112.594 178.377 112.858 178.206C113.123 178.033 113.465 177.946 113.883 177.946C114.259 177.946 114.587 178.023 114.869 178.177C115.15 178.329 115.369 178.56 115.526 178.87C115.682 179.178 115.76 179.568 115.76 180.04V183.562H114.908V180.098C114.908 179.662 114.795 179.323 114.569 179.08C114.343 178.834 114.033 178.712 113.638 178.712C113.366 178.712 113.123 178.77 112.909 178.888C112.697 179.006 112.53 179.178 112.407 179.405C112.284 179.631 112.223 179.905 112.223 180.227ZM119.728 178.019V178.74H116.855V178.019H119.728ZM117.692 176.69H118.544V181.974C118.544 182.215 118.579 182.395 118.649 182.516C118.721 182.634 118.812 182.713 118.923 182.754C119.036 182.793 119.155 182.812 119.28 182.812C119.374 182.812 119.451 182.807 119.511 182.797C119.571 182.785 119.62 182.776 119.656 182.768L119.829 183.534C119.771 183.555 119.691 183.577 119.587 183.599C119.484 183.623 119.352 183.635 119.194 183.635C118.953 183.635 118.717 183.583 118.486 183.479C118.258 183.376 118.068 183.218 117.916 183.007C117.767 182.795 117.692 182.528 117.692 182.205V176.69ZM123.274 183.678C122.74 183.678 122.279 183.56 121.892 183.324C121.507 183.086 121.209 182.754 121 182.328C120.793 181.9 120.69 181.402 120.69 180.834C120.69 180.266 120.793 179.765 121 179.332C121.209 178.897 121.501 178.558 121.874 178.315C122.249 178.069 122.687 177.946 123.187 177.946C123.476 177.946 123.761 177.994 124.043 178.091C124.324 178.187 124.581 178.343 124.812 178.56C125.043 178.774 125.227 179.058 125.364 179.412C125.501 179.765 125.57 180.201 125.57 180.718V181.079H121.296V180.343H124.703C124.703 180.03 124.641 179.751 124.516 179.506C124.393 179.26 124.217 179.066 123.989 178.924C123.763 178.783 123.495 178.712 123.187 178.712C122.848 178.712 122.555 178.796 122.307 178.964C122.061 179.13 121.872 179.347 121.74 179.614C121.608 179.881 121.542 180.167 121.542 180.473V180.964C121.542 181.382 121.614 181.737 121.758 182.029C121.905 182.317 122.108 182.537 122.368 182.689C122.628 182.838 122.93 182.913 123.274 182.913C123.498 182.913 123.7 182.882 123.88 182.819C124.063 182.754 124.221 182.658 124.353 182.53C124.486 182.4 124.588 182.239 124.66 182.047L125.483 182.278C125.396 182.557 125.251 182.802 125.046 183.014C124.842 183.223 124.589 183.387 124.288 183.505C123.987 183.62 123.649 183.678 123.274 183.678ZM127.717 180.227V183.562H126.865V178.019H127.688V178.885H127.76C127.89 178.603 128.088 178.377 128.352 178.206C128.617 178.033 128.959 177.946 129.377 177.946C129.753 177.946 130.081 178.023 130.363 178.177C130.644 178.329 130.863 178.56 131.02 178.87C131.176 179.178 131.254 179.568 131.254 180.04V183.562H130.403V180.098C130.403 179.662 130.289 179.323 130.063 179.08C129.837 178.834 129.527 178.712 129.132 178.712C128.86 178.712 128.617 178.77 128.403 178.888C128.191 179.006 128.024 179.178 127.901 179.405C127.779 179.631 127.717 179.905 127.717 180.227ZM134.904 183.678C134.442 183.678 134.034 183.561 133.681 183.328C133.327 183.092 133.05 182.76 132.851 182.332C132.651 181.901 132.551 181.392 132.551 180.805C132.551 180.223 132.651 179.717 132.851 179.289C133.05 178.861 133.328 178.53 133.684 178.296C134.04 178.063 134.452 177.946 134.919 177.946C135.28 177.946 135.565 178.007 135.774 178.127C135.986 178.245 136.147 178.379 136.258 178.531C136.371 178.68 136.459 178.803 136.521 178.899H136.593V176.171H137.445V183.562H136.622V182.711H136.521C136.459 182.812 136.37 182.939 136.254 183.093C136.139 183.245 135.974 183.381 135.76 183.501C135.546 183.619 135.26 183.678 134.904 183.678ZM135.02 182.913C135.361 182.913 135.65 182.824 135.886 182.646C136.122 182.465 136.301 182.216 136.424 181.899C136.547 181.579 136.608 181.209 136.608 180.791C136.608 180.377 136.548 180.015 136.427 179.704C136.307 179.391 136.129 179.148 135.893 178.975C135.657 178.799 135.366 178.712 135.02 178.712C134.659 178.712 134.358 178.804 134.117 178.989C133.879 179.172 133.7 179.421 133.58 179.737C133.462 180.049 133.403 180.401 133.403 180.791C133.403 181.185 133.463 181.544 133.583 181.866C133.706 182.186 133.886 182.441 134.125 182.631C134.365 182.819 134.664 182.913 135.02 182.913Z" fill="black"/>
<path d="M166.831 163.466H167.726V168.361C167.726 168.866 167.607 169.317 167.368 169.714C167.133 170.109 166.799 170.42 166.369 170.649C165.938 170.875 165.433 170.988 164.853 170.988C164.273 170.988 163.767 170.875 163.337 170.649C162.906 170.42 162.572 170.109 162.333 169.714C162.097 169.317 161.98 168.866 161.98 168.361V163.466H162.875V168.289C162.875 168.649 162.954 168.971 163.113 169.252C163.272 169.531 163.498 169.752 163.791 169.913C164.087 170.072 164.441 170.151 164.853 170.151C165.264 170.151 165.618 170.072 165.914 169.913C166.21 169.752 166.436 169.531 166.592 169.252C166.751 168.971 166.831 168.649 166.831 168.289V163.466ZM169.946 163.466L171.852 166.542H171.91L173.816 163.466H174.869L172.545 167.162L174.869 170.858H173.816L171.91 167.841H171.852L169.946 170.858H168.892L171.275 167.162L168.892 163.466H169.946ZM178.532 163.12L176.15 171.97H175.37L177.752 163.12H178.532ZM184.508 163.466H185.403V168.361C185.403 168.866 185.284 169.317 185.046 169.714C184.81 170.109 184.477 170.42 184.046 170.649C183.616 170.875 183.11 170.988 182.53 170.988C181.95 170.988 181.445 170.875 181.014 170.649C180.584 170.42 180.249 170.109 180.011 169.714C179.775 169.317 179.657 168.866 179.657 168.361V163.466H180.552V168.289C180.552 168.649 180.632 168.971 180.791 169.252C180.949 169.531 181.176 169.752 181.469 169.913C181.765 170.072 182.119 170.151 182.53 170.151C182.942 170.151 183.296 170.072 183.591 169.913C183.887 169.752 184.114 169.531 184.27 169.252C184.429 168.971 184.508 168.649 184.508 168.289V163.466ZM188.086 163.466V170.858H187.191V163.466H188.086ZM195.021 170.858H192.739V163.466H195.122C195.839 163.466 196.452 163.614 196.962 163.91C197.472 164.204 197.863 164.626 198.135 165.177C198.407 165.726 198.543 166.383 198.543 167.148C198.543 167.918 198.406 168.581 198.132 169.137C197.857 169.69 197.458 170.116 196.933 170.414C196.409 170.71 195.771 170.858 195.021 170.858ZM193.635 170.064H194.963C195.574 170.064 196.08 169.946 196.482 169.711C196.884 169.475 197.184 169.139 197.381 168.704C197.578 168.268 197.677 167.75 197.677 167.148C197.677 166.551 197.58 166.038 197.385 165.607C197.19 165.174 196.899 164.842 196.511 164.611C196.124 164.377 195.641 164.261 195.064 164.261H193.635V170.064ZM202.254 170.974C201.719 170.974 201.259 170.856 200.871 170.62C200.486 170.382 200.189 170.05 199.98 169.624C199.773 169.196 199.669 168.698 199.669 168.13C199.669 167.562 199.773 167.061 199.98 166.628C200.189 166.193 200.48 165.853 200.853 165.61C201.229 165.365 201.667 165.242 202.167 165.242C202.456 165.242 202.741 165.29 203.022 165.387C203.304 165.483 203.56 165.639 203.791 165.856C204.022 166.07 204.206 166.354 204.343 166.708C204.481 167.061 204.549 167.497 204.549 168.014V168.375H200.276V167.639H203.683C203.683 167.326 203.62 167.047 203.495 166.801C203.373 166.556 203.197 166.362 202.968 166.22C202.742 166.078 202.475 166.007 202.167 166.007C201.828 166.007 201.534 166.092 201.286 166.26C201.041 166.426 200.852 166.643 200.72 166.91C200.587 167.177 200.521 167.463 200.521 167.769V168.26C200.521 168.678 200.593 169.033 200.738 169.324C200.884 169.613 201.088 169.833 201.348 169.985C201.608 170.134 201.91 170.209 202.254 170.209C202.477 170.209 202.68 170.177 202.86 170.115C203.043 170.05 203.2 169.954 203.333 169.826C203.465 169.696 203.567 169.535 203.64 169.342L204.463 169.573C204.376 169.853 204.23 170.098 204.026 170.31C203.821 170.519 203.569 170.683 203.268 170.801C202.967 170.916 202.629 170.974 202.254 170.974ZM209.772 166.556L209.007 166.773C208.959 166.645 208.888 166.521 208.794 166.401C208.702 166.278 208.577 166.177 208.418 166.098C208.26 166.018 208.056 165.979 207.808 165.979C207.469 165.979 207.186 166.057 206.96 166.213C206.736 166.367 206.625 166.563 206.625 166.801C206.625 167.013 206.702 167.18 206.856 167.303C207.01 167.426 207.25 167.528 207.577 167.61L208.4 167.812C208.896 167.932 209.265 168.116 209.508 168.364C209.751 168.61 209.873 168.926 209.873 169.314C209.873 169.631 209.782 169.915 209.599 170.165C209.418 170.416 209.166 170.613 208.841 170.757C208.516 170.902 208.138 170.974 207.707 170.974C207.142 170.974 206.674 170.851 206.303 170.606C205.933 170.36 205.698 170.002 205.6 169.53L206.408 169.328C206.485 169.626 206.631 169.85 206.845 169.999C207.061 170.149 207.344 170.223 207.693 170.223C208.09 170.223 208.405 170.139 208.639 169.97C208.874 169.8 208.992 169.595 208.992 169.357C208.992 169.164 208.925 169.003 208.79 168.873C208.655 168.741 208.448 168.642 208.169 168.577L207.245 168.361C206.738 168.24 206.365 168.054 206.126 167.801C205.891 167.546 205.773 167.227 205.773 166.845C205.773 166.532 205.861 166.255 206.036 166.015C206.214 165.774 206.456 165.585 206.762 165.448C207.07 165.311 207.419 165.242 207.808 165.242C208.357 165.242 208.788 165.363 209.101 165.603C209.416 165.844 209.64 166.161 209.772 166.556ZM211.155 170.858V165.314H212.007V170.858H211.155ZM211.588 164.39C211.422 164.39 211.279 164.334 211.159 164.221C211.041 164.108 210.982 163.972 210.982 163.813C210.982 163.654 211.041 163.518 211.159 163.405C211.279 163.292 211.422 163.235 211.588 163.235C211.754 163.235 211.896 163.292 212.014 163.405C212.135 163.518 212.195 163.654 212.195 163.813C212.195 163.972 212.135 164.108 212.014 164.221C211.896 164.334 211.754 164.39 211.588 164.39ZM215.805 173.053C215.393 173.053 215.04 173 214.744 172.894C214.448 172.791 214.201 172.653 214.004 172.483C213.809 172.314 213.654 172.134 213.538 171.941L214.217 171.465C214.294 171.566 214.391 171.681 214.509 171.811C214.627 171.944 214.788 172.058 214.993 172.154C215.2 172.253 215.47 172.302 215.805 172.302C216.253 172.302 216.622 172.194 216.913 171.977C217.204 171.761 217.35 171.421 217.35 170.959V169.833H217.278C217.215 169.934 217.126 170.06 217.01 170.209C216.897 170.355 216.734 170.487 216.52 170.602C216.308 170.715 216.022 170.772 215.661 170.772C215.213 170.772 214.811 170.666 214.455 170.454C214.101 170.242 213.821 169.934 213.614 169.53C213.41 169.126 213.307 168.635 213.307 168.058C213.307 167.49 213.407 166.995 213.607 166.574C213.807 166.151 214.084 165.823 214.441 165.592C214.797 165.359 215.208 165.242 215.675 165.242C216.036 165.242 216.322 165.302 216.534 165.423C216.748 165.541 216.912 165.675 217.025 165.827C217.14 165.976 217.229 166.099 217.292 166.195H217.379V165.314H218.202V171.017C218.202 171.494 218.093 171.881 217.877 172.179C217.663 172.48 217.374 172.7 217.01 172.84C216.65 172.982 216.248 173.053 215.805 173.053ZM215.776 170.007C216.118 170.007 216.407 169.928 216.642 169.772C216.878 169.616 217.057 169.391 217.18 169.097C217.303 168.803 217.364 168.452 217.364 168.043C217.364 167.644 217.304 167.291 217.184 166.986C217.063 166.68 216.885 166.441 216.65 166.267C216.414 166.094 216.123 166.007 215.776 166.007C215.415 166.007 215.114 166.099 214.874 166.282C214.636 166.465 214.456 166.71 214.336 167.018C214.218 167.326 214.159 167.668 214.159 168.043C214.159 168.428 214.219 168.769 214.34 169.065C214.462 169.358 214.643 169.589 214.881 169.758C215.122 169.924 215.42 170.007 215.776 170.007ZM220.613 167.523V170.858H219.761V165.314H220.584V166.181H220.656C220.786 165.899 220.983 165.673 221.248 165.502C221.513 165.329 221.854 165.242 222.273 165.242C222.648 165.242 222.977 165.319 223.258 165.473C223.54 165.625 223.759 165.856 223.915 166.166C224.072 166.474 224.15 166.864 224.15 167.336V170.858H223.298V167.393C223.298 166.958 223.185 166.619 222.959 166.376C222.733 166.13 222.422 166.007 222.027 166.007C221.756 166.007 221.513 166.066 221.298 166.184C221.087 166.302 220.919 166.474 220.797 166.7C220.674 166.927 220.613 167.201 220.613 167.523Z" fill="black"/>
</svg>
