<svg width="32" height="32" viewBox="0 0 32 32" fill="none" xmlns="http://www.w3.org/2000/svg">
<rect width="32" height="32" rx="8" fill="#8E73EF" fill-opacity="0.1"/>
<path d="M10.3334 20.5C10.06 20.5 9.83337 20.2733 9.83337 20V12.6667C9.83337 9.72666 10.7267 8.83333 13.6667 8.83333H18.3334C21.2734 8.83333 22.1667 9.72666 22.1667 12.6667V19.3333C22.1667 19.44 22.1667 19.54 22.16 19.6467C22.14 19.92 21.8934 20.1333 21.6267 20.1133C21.3534 20.0933 21.14 19.8533 21.16 19.58C21.1667 19.5 21.1667 19.4133 21.1667 19.3333V12.6667C21.1667 10.2867 20.72 9.83333 18.3334 9.83333H13.6667C11.28 9.83333 10.8334 10.2867 10.8334 12.6667V20C10.8334 20.2733 10.6067 20.5 10.3334 20.5Z" fill="#8E73EF"/>
<path d="M19.3334 23.1667H12.6667C11.1067 23.1667 9.83337 21.8933 9.83337 20.3333V19.9C9.83337 18.5733 10.9134 17.5 12.2334 17.5H21.6667C21.94 17.5 22.1667 17.7267 22.1667 18V20.3333C22.1667 21.8933 20.8934 23.1667 19.3334 23.1667ZM12.2334 18.5C11.46 18.5 10.8334 19.1267 10.8334 19.9V20.3333C10.8334 21.3467 11.6534 22.1667 12.6667 22.1667H19.3334C20.3467 22.1667 21.1667 21.3467 21.1667 20.3333V18.5H12.2334Z" fill="#8E73EF"/>
<path d="M18.6667 13.1667H13.3334C13.06 13.1667 12.8334 12.94 12.8334 12.6667C12.8334 12.3933 13.06 12.1667 13.3334 12.1667H18.6667C18.94 12.1667 19.1667 12.3933 19.1667 12.6667C19.1667 12.94 18.94 13.1667 18.6667 13.1667Z" fill="#8E73EF"/>
<path d="M16.6667 15.5H13.3334C13.06 15.5 12.8334 15.2733 12.8334 15C12.8334 14.7267 13.06 14.5 13.3334 14.5H16.6667C16.94 14.5 17.1667 14.7267 17.1667 15C17.1667 15.2733 16.94 15.5 16.6667 15.5Z" fill="#8E73EF"/>
</svg>
