<svg width="729" height="163" viewBox="0 0 729 163" fill="none" xmlns="http://www.w3.org/2000/svg">
<g clip-path="url(#clip0_131_4760)">
<rect width="729" height="163" rx="16" fill="#8E73EF"/>
<mask id="mask0_131_4760" style="mask-type:luminance" maskUnits="userSpaceOnUse" x="0" y="-63" width="495" height="291">
<path d="M494.793 -63H0V227.869H494.793V-63Z" fill="white"/>
</mask>
<g mask="url(#mask0_131_4760)">
<g style="mix-blend-mode:overlay" opacity="0.09">
<path d="M110.523 -181.704C107.114 -149.884 99.3216 -119.028 79.8408 -90.5833C79.3538 -89.619 79.3538 -89.1369 78.8668 -88.1727C73.9966 -81.423 69.6134 -75.6375 64.2562 -68.8878C63.7692 -68.4057 62.7951 -67.9236 62.3081 -67.4415C55.4898 -59.2454 48.1846 -52.4957 39.9052 -45.746C1.91766 -11.9975 -19.0242 35.2504 -23.4074 84.4268" stroke="white" stroke-width="6.27053" stroke-miterlimit="10"/>
<path d="M123.673 -156.635C123.673 -151.331 122.699 -146.51 122.212 -141.207C121.238 -133.011 119.29 -124.815 116.855 -116.618C114.419 -108.422 111.497 -100.708 108.575 -92.9945C104.679 -83.8342 100.296 -75.6381 94.9386 -66.96C85.6852 -52.4963 75.4578 -39.479 62.3083 -28.3902C61.8213 -27.9081 61.3342 -26.9439 60.8472 -26.4618C23.8337 3.42977 0.943777 42.9637 -7.33556 89.2474V92.1401C-8.3096 97.9256 -9.28364 103.711 -9.77066 109.496" stroke="white" stroke-width="6.27053" stroke-miterlimit="10"/>
<path d="M328.708 -75.6377C326.273 -45.2641 319.941 -15.3725 308.74 13.0726C304.844 22.2329 300.46 30.9111 296.077 40.0714C288.285 54.0529 280.493 66.106 270.265 78.6411C266.856 82.4981 263.934 85.873 261.012 89.7299C256.629 94.5511 252.245 98.8902 247.375 103.711C235.687 114.318 224.485 123.478 214.745 136.014C214.258 136.496 213.284 136.978 212.797 137.46C198.673 155.298 186.498 172.655 177.244 192.904C176.757 193.386 176.27 194.35 175.783 194.832C160.686 227.135 151.919 261.847 149.971 297.042" stroke="white" stroke-width="6.27053" stroke-miterlimit="10"/>
<path d="M135.361 -121.921C134.874 -108.422 131.952 -95.4048 128.543 -81.9054C125.621 -72.2629 122.699 -63.1026 118.316 -53.9423C117.829 -53.4602 117.342 -52.496 116.854 -52.0139C105.653 -26.9435 88.6073 -5.24808 66.6914 12.5904C47.2106 29.4647 32.6 49.2316 21.3986 71.8913C16.0414 82.9801 11.6582 94.551 8.73606 106.604C6.78798 112.39 5.32692 118.175 4.35289 123.96C3.37885 130.71 2.40481 137.46 1.91779 144.21" stroke="white" stroke-width="6.27053" stroke-miterlimit="10"/>
<path d="M142.18 -74.674C139.745 -39.9612 129.03 -7.177 107.601 22.7145C107.114 23.6788 107.114 24.1609 106.627 25.1251C104.679 28.0179 102.731 30.4285 100.783 32.8391C99.809 34.2854 98.3479 34.7675 97.3739 36.2139C89.5815 46.3385 80.8152 53.5703 71.5618 61.7663C66.6916 66.1054 62.3084 70.4445 57.9252 75.2657C55.9772 77.6763 54.0291 80.0869 51.594 82.4976C48.1848 86.3545 45.7497 89.7294 42.8276 94.0685C41.3666 96.9612 39.4185 99.3718 37.4704 102.265C20.4247 130.228 10.6843 160.119 8.73624 191.939" stroke="white" stroke-width="6.27053" stroke-miterlimit="10"/>
<path d="M171.4 -75.1554C168.965 -35.1393 158.25 2.46614 134.386 37.661C127.081 48.2677 120.263 56.9459 111.496 66.1062C101.269 76.7128 90.0673 85.391 80.3269 96.4798C77.4048 100.337 74.4826 103.712 71.0735 107.569C42.3393 144.692 28.2158 187.601 25.2936 232.438" stroke="white" stroke-width="6.27053" stroke-miterlimit="10"/>
<path d="M204.517 -59.7286C204.517 -52.0147 203.543 -44.7829 202.082 -37.0689V-34.1762C199.647 -18.2662 194.777 -3.32044 189.42 11.6253C186.985 18.8571 183.576 25.1247 180.167 31.8744C173.348 44.8917 165.556 56.9447 156.303 68.5156C144.127 83.4614 130.49 95.0323 116.854 108.05C113.932 110.942 111.984 114.317 109.062 117.21C77.4053 154.815 61.8207 200.617 58.8986 247.865" stroke="white" stroke-width="6.27053" stroke-miterlimit="10"/>
<path d="M244.454 -59.7286C243.48 -46.2292 242.019 -32.7298 238.609 -19.2304C231.791 6.80411 223.025 29.9459 206.953 52.6056C206.466 53.5699 206.466 54.052 205.979 55.0162C191.368 77.1938 172.862 91.6575 154.842 109.978C152.894 112.389 150.946 114.799 148.511 117.21C117.341 154.815 101.27 200.617 98.3477 247.865" stroke="white" stroke-width="6.27053" stroke-miterlimit="10"/>
<path d="M298.026 -72.2637C294.617 -21.1588 274.649 28.0176 239.584 67.5515C239.097 68.0336 238.123 68.5158 237.636 68.9979C236.662 70.4442 235.687 71.4085 234.713 72.8549C223.999 83.4615 213.285 92.1397 202.57 102.264C197.7 107.568 192.83 112.871 187.96 118.656C181.141 126.852 175.784 135.049 169.94 144.209C149.485 177.475 139.258 213.152 135.848 250.758" stroke="white" stroke-width="6.27053" stroke-miterlimit="10"/>
<path d="M361.826 -60.2101C357.929 11.1438 326.273 80.0872 269.779 128.781C261.986 135.531 254.681 142.763 247.863 150.959L243.48 156.744C242.993 157.227 242.019 157.709 241.532 158.191C239.097 161.566 236.661 164.458 234.226 167.833C232.278 171.69 229.843 174.583 227.408 177.958C225.46 180.851 223.999 183.261 222.051 186.154C218.642 192.904 214.258 198.689 211.823 205.921C211.336 206.403 210.849 207.367 210.362 207.849C198.674 232.92 190.395 258.472 186.011 286.435V289.328C184.55 297.042 184.063 304.756 183.576 312.47" stroke="white" stroke-width="6.27053" stroke-miterlimit="10"/>
<path d="M403.222 -63.5842C402.248 -54.4239 401.761 -45.2636 399.813 -35.6211V-32.7284C394.942 -7.17597 388.124 15.4837 377.41 38.6256C376.923 39.1077 376.436 40.0719 375.949 40.554C371.079 52.125 364.747 61.7674 357.929 72.8562C352.085 81.0522 346.728 88.2841 340.396 95.998C334.065 103.712 327.734 110.462 320.428 116.729C313.123 122.997 307.279 128.782 300.461 135.05C279.032 157.227 261.499 181.333 249.811 209.297C249.324 209.779 248.837 210.743 248.35 211.225C234.713 242.563 226.921 275.347 224.486 309.096" stroke="white" stroke-width="6.27053" stroke-miterlimit="10"/>
<path d="M466.535 -82.3868C465.074 -64.5483 462.152 -47.1919 457.281 -29.8356C453.385 -15.854 448.515 -3.31888 442.671 9.69839C442.184 10.1805 441.697 11.1448 441.21 11.6269C435.853 22.7157 430.495 32.8402 423.19 43.4469C422.703 44.4111 422.703 44.8932 422.216 45.8575C416.859 53.5714 411.989 60.3211 406.144 67.0708C399.813 73.8205 394.456 80.0881 387.638 86.3557C371.566 100.337 356.955 113.354 343.319 130.229C331.143 145.657 321.403 160.602 313.611 177.959C313.124 178.441 312.637 179.405 312.15 179.887C298.026 209.779 290.234 241.599 287.311 274.383" stroke="white" stroke-width="6.27053" stroke-miterlimit="10"/>
<path d="M497.704 -87.2084C492.834 -5.72987 454.359 73.338 390.56 125.407C385.203 131.675 378.871 136.496 374.001 143.246C373.514 143.728 372.54 144.21 372.053 144.692C361.339 158.673 351.111 170.727 342.345 186.154C340.397 189.047 338.936 191.458 336.988 194.35C324.325 217.492 315.072 240.152 309.228 265.704C307.279 272.454 305.331 278.722 304.357 285.471C302.409 298.489 299.974 311.024 299.974 324.041" stroke="white" stroke-width="6.27053" stroke-miterlimit="10"/>
<path d="M531.308 -72.2637C529.847 -63.1034 529.847 -53.9431 527.899 -44.3006V-41.4079C525.951 -28.8728 523.029 -17.3018 519.62 -4.76669C518.159 1.01877 515.723 6.3221 514.262 12.1076C513.288 14.5182 512.314 16.4467 511.34 18.8573C508.418 25.1248 506.957 31.3924 504.035 37.1779C488.937 68.5158 469.457 96.4788 445.593 121.067C422.216 141.316 401.761 162.047 383.254 188.564C382.767 189.528 382.767 190.01 382.28 190.975C374.975 200.617 370.104 210.259 364.747 220.384C361.825 226.169 358.903 231.955 356.468 238.222C352.572 247.865 349.65 257.025 346.241 266.668C345.753 268.114 345.753 270.042 345.266 271.489C341.37 283.542 338.935 295.595 336.5 308.13V311.023C334.552 320.665 334.552 329.826 333.091 338.986" stroke="white" stroke-width="6.27053" stroke-miterlimit="10"/>
<path d="M573.193 -77.566C573.193 -74.1912 572.706 -70.8163 572.706 -67.4415C572.706 -65.513 572.219 -64.0666 571.732 -62.1382C564.426 11.1443 530.335 79.6055 473.354 128.782C472.867 129.264 472.38 130.228 471.893 130.71C411.989 182.779 379.846 257.508 375.463 333.683" stroke="white" stroke-width="6.27053" stroke-miterlimit="10"/>
</g>
</g>
<mask id="mask1_131_4760" style="mask-type:luminance" maskUnits="userSpaceOnUse" x="494" y="-63" width="496" height="291">
<path d="M989.543 -63H494.751V227.869H989.543V-63Z" fill="white"/>
</mask>
<g mask="url(#mask1_131_4760)">
<g style="mix-blend-mode:overlay" opacity="0.09">
<path d="M605.274 -181.704C601.865 -149.884 594.072 -119.028 574.592 -90.5833C574.105 -89.619 574.105 -89.1369 573.617 -88.1727C568.747 -81.423 564.364 -75.6375 559.007 -68.8878C558.52 -68.4057 557.546 -67.9236 557.059 -67.4415C550.241 -59.2454 542.935 -52.4957 534.656 -45.746C496.668 -11.9975 475.726 35.2504 471.343 84.4268" stroke="white" stroke-width="6.27053" stroke-miterlimit="10"/>
<path d="M618.423 -156.635C618.423 -151.331 617.449 -146.51 616.962 -141.207C615.988 -133.011 614.04 -124.815 611.605 -116.618C609.17 -108.422 606.248 -100.708 603.326 -92.9945C599.43 -83.8342 595.047 -75.6381 589.689 -66.96C580.436 -52.4963 570.209 -39.479 557.059 -28.3902C556.572 -27.9081 556.085 -26.9439 555.598 -26.4618C518.584 3.42977 495.694 42.9637 487.415 89.2474V92.1401C486.441 97.9256 485.467 103.711 484.98 109.496" stroke="white" stroke-width="6.27053" stroke-miterlimit="10"/>
<path d="M823.458 -75.6377C821.023 -45.2641 814.692 -15.3725 803.49 13.0726C799.594 22.2329 795.211 30.9111 790.828 40.0714C783.036 54.0529 775.243 66.106 765.016 78.6411C761.607 82.4981 758.685 85.873 755.763 89.7299C751.379 94.5511 746.996 98.8902 742.126 103.711C730.437 114.318 719.236 123.478 709.496 136.014C709.009 136.496 708.035 136.978 707.548 137.46C693.424 155.298 681.248 172.655 671.995 192.904C671.508 193.386 671.021 194.35 670.534 194.832C655.436 227.135 646.67 261.847 644.722 297.042" stroke="white" stroke-width="6.27053" stroke-miterlimit="10"/>
<path d="M630.112 -121.921C629.625 -108.422 626.703 -95.4048 623.294 -81.9054C620.372 -72.2629 617.449 -63.1026 613.066 -53.9423C612.579 -53.4602 612.092 -52.496 611.605 -52.0139C600.404 -26.9435 583.358 -5.24808 561.442 12.5904C541.961 29.4647 527.351 49.2316 516.149 71.8913C510.792 82.9801 506.409 94.551 503.487 106.604C501.539 112.39 500.078 118.175 499.104 123.96C498.13 130.71 497.155 137.46 496.668 144.21" stroke="white" stroke-width="6.27053" stroke-miterlimit="10"/>
<path d="M636.93 -74.674C634.495 -39.9612 623.781 -7.177 602.352 22.7145C601.865 23.6788 601.865 24.1609 601.378 25.1251C599.43 28.0179 597.482 30.4285 595.534 32.8391C594.56 34.2854 593.099 34.7675 592.125 36.2139C584.332 46.3385 575.566 53.5703 566.312 61.7663C561.442 66.1054 557.059 70.4445 552.676 75.2657C550.728 77.6763 548.78 80.0869 546.345 82.4976C542.936 86.3545 540.5 89.7294 537.578 94.0685C536.117 96.9612 534.169 99.3718 532.221 102.265C515.175 130.228 505.435 160.119 503.487 191.939" stroke="white" stroke-width="6.27053" stroke-miterlimit="10"/>
<path d="M666.15 -75.1554C663.715 -35.1393 653.001 2.46614 629.137 37.661C621.832 48.2677 615.013 56.9459 606.247 66.1062C596.019 76.7128 584.818 85.391 575.078 96.4798C572.155 100.337 569.233 103.712 565.824 107.569C537.09 144.692 522.966 187.601 520.044 232.438" stroke="white" stroke-width="6.27053" stroke-miterlimit="10"/>
<path d="M699.268 -59.7286C699.268 -52.0147 698.294 -44.7829 696.833 -37.0689V-34.1762C694.398 -18.2662 689.528 -3.32044 684.171 11.6253C681.735 18.8571 678.326 25.1247 674.917 31.8744C668.099 44.8917 660.307 56.9447 651.053 68.5156C638.878 83.4614 625.241 95.0323 611.605 108.05C608.683 110.942 606.734 114.317 603.812 117.21C572.156 154.815 556.571 200.617 553.649 247.865" stroke="white" stroke-width="6.27053" stroke-miterlimit="10"/>
<path d="M739.204 -59.7286C738.23 -46.2292 736.769 -32.7298 733.36 -19.2304C726.542 6.80411 717.775 29.9459 701.704 52.6056C701.217 53.5699 701.217 54.052 700.73 55.0162C686.119 77.1938 667.612 91.6575 649.593 109.978C647.645 112.389 645.697 114.799 643.261 117.21C612.092 154.815 596.02 200.617 593.098 247.865" stroke="white" stroke-width="6.27053" stroke-miterlimit="10"/>
<path d="M792.777 -72.2637C789.368 -21.1588 769.4 28.0176 734.334 67.5515C733.847 68.0336 732.873 68.5158 732.386 68.9979C731.412 70.4442 730.438 71.4085 729.464 72.8549C718.75 83.4615 708.035 92.1397 697.321 102.264C692.451 107.568 687.58 112.871 682.71 118.656C675.892 126.852 670.535 135.049 664.69 144.209C644.236 177.475 634.008 213.152 630.599 250.758" stroke="white" stroke-width="6.27053" stroke-miterlimit="10"/>
<path d="M856.576 -60.2101C852.68 11.1438 821.024 80.0872 764.529 128.781C756.737 135.531 749.432 142.763 742.614 150.959L738.23 156.744C737.743 157.227 736.769 157.709 736.282 158.191C733.847 161.566 731.412 164.458 728.977 167.833C727.029 171.69 724.594 174.583 722.159 177.958C720.211 180.851 718.75 183.261 716.801 186.154C713.392 192.904 709.009 198.689 706.574 205.921C706.087 206.403 705.6 207.367 705.113 207.849C693.425 232.92 685.145 258.472 680.762 286.435V289.328C679.301 297.042 678.814 304.756 678.327 312.47" stroke="white" stroke-width="6.27053" stroke-miterlimit="10"/>
<path d="M897.973 -63.5842C896.998 -54.4239 896.511 -45.2636 894.563 -35.6211V-32.7284C889.693 -7.17597 882.875 15.4837 872.16 38.6256C871.673 39.1077 871.186 40.0719 870.699 40.554C865.829 52.125 859.498 61.7674 852.68 72.8562C846.835 81.0522 841.478 88.2841 835.147 95.998C828.816 103.712 822.484 110.462 815.179 116.729C807.874 122.997 802.03 128.782 795.211 135.05C773.782 157.227 756.25 181.333 744.561 209.297C744.074 209.779 743.587 210.743 743.1 211.225C729.464 242.563 721.671 275.347 719.236 309.096" stroke="white" stroke-width="6.27053" stroke-miterlimit="10"/>
</g>
</g>
</g>
<defs>
<clipPath id="clip0_131_4760">
<rect width="729" height="163" fill="white"/>
</clipPath>
</defs>
</svg>
