<svg width="170" height="169" viewBox="0 0 170 169" fill="none" xmlns="http://www.w3.org/2000/svg">
<path d="M151.497 77.6614C153.777 83.1102 155.017 88.9661 155.017 95.0628C155.017 109.559 148.009 122.691 136.662 132.234C134.961 133.665 133.892 135.737 133.892 137.96V154.917H119.809L114.219 146.942C113.352 145.704 111.793 145.166 110.329 145.542C98.1545 148.672 85.1303 148.672 72.9559 145.542C71.492 145.166 69.9332 145.704 69.0657 146.942L63.4757 154.917H49.3924V138.125C49.3924 135.81 48.2541 133.643 46.3479 132.329C38.7796 127.11 14.1841 116.902 14.1841 106.035V95.0628C14.1841 90.8962 17.3367 87.5183 21.2257 87.5183C25.4976 87.5183 28.9848 85.8586 30.3944 81.4449C35.7958 64.5309 51.018 50.954 70.6625 45.2129" stroke="white" stroke-width="2.028" stroke-linecap="round" stroke-linejoin="round"/>
<path d="M99.5649 66.8965V24.6465M112.768 24.6465V14.084M112.768 77.459V66.8965M99.5649 45.7715H125.971M125.971 45.7715C130.346 45.7715 133.893 49.3182 133.893 53.6934V58.9746C133.893 63.3497 130.346 66.8965 125.971 66.8965H91.6431M125.971 45.7715C130.346 45.7715 133.893 42.2247 133.893 37.8496V32.5684C133.893 28.1932 130.346 24.6465 125.971 24.6465H91.6431" stroke="white" stroke-width="2.028" stroke-linecap="round" stroke-linejoin="round"/>
<path d="M52.9121 84.5H52.9753" stroke="white" stroke-width="2.704" stroke-linecap="round" stroke-linejoin="round"/>
</svg>
