<svg width="33" height="32" viewBox="0 0 33 32" fill="none" xmlns="http://www.w3.org/2000/svg">
<rect x="0.333313" width="32" height="32" rx="8" fill="#8E73EF" fill-opacity="0.1"/>
<path d="M22.5 11.1133V19.16C22.5 19.8 21.98 20.3999 21.34 20.4799L21.12 20.5067C19.6666 20.7 17.4266 21.4399 16.1466 22.1466C15.9733 22.2466 15.6866 22.2466 15.5066 22.1466L15.48 22.1333C14.1999 21.4333 11.9666 20.7 10.52 20.5067L10.3266 20.4799C9.68662 20.3999 9.16663 19.8 9.16663 19.16V11.1066C9.16663 10.3133 9.81327 9.7133 10.6066 9.77996C12.0066 9.8933 14.1266 10.6 15.3133 11.34L15.48 11.44C15.6733 11.56 15.9933 11.56 16.1866 11.44L16.3 11.3666C16.72 11.1066 17.2533 10.8466 17.8333 10.6133V13.3333L19.1666 12.4466L20.5 13.3333V9.85333C20.68 9.82 20.8533 9.79997 21.0133 9.78664H21.0533C21.8466 9.71997 22.5 10.3133 22.5 11.1133Z" stroke="#8E73EF" stroke-linecap="round" stroke-linejoin="round"/>
<path d="M15.8333 11.66V21.66" stroke="#8E73EF" stroke-linecap="round" stroke-linejoin="round"/>
<path d="M20.5 9.85336V13.3333L19.1666 12.4467L17.8333 13.3333V10.6133C18.7066 10.2667 19.68 9.9867 20.5 9.85336Z" stroke="#8E73EF" stroke-linecap="round" stroke-linejoin="round"/>
</svg>
