<svg width="106" height="126" viewBox="0 0 106 126" fill="none" xmlns="http://www.w3.org/2000/svg">
<path d="M5.74557 65.9286L5.12717 70.1072C4.54128 74.0667 6.48557 77.9718 9.99877 79.8903L13.7059 81.9148L14.6385 86.0343C14.7433 86.4977 14.8812 86.9477 15.0493 87.3812C12.5713 90.7174 9.87543 93.8517 6.98531 96.7531C4.20499 99.5445 3.42314 103.756 5.01713 107.359C6.55155 110.829 9.98522 113.048 13.751 113.048C13.8967 113.048 14.0425 113.045 14.1889 113.038L28.1477 112.401L33.5141 121.328C35.1738 124.09 38.1141 125.829 41.3336 125.953C41.457 125.958 41.58 125.96 41.7026 125.96C44.7862 125.96 47.6902 124.469 49.4862 121.944C50.5355 120.469 51.5359 118.909 52.4852 117.266C53.4347 118.909 54.4349 120.469 55.4844 121.944C57.2802 124.469 60.1846 125.96 63.268 125.96C63.3908 125.96 63.5134 125.958 63.6368 125.953C66.8565 125.829 69.7966 124.09 71.4565 121.328L76.8227 112.401L90.7814 113.038C90.9277 113.045 91.0739 113.048 91.2194 113.048C94.9856 113.048 98.4188 110.829 99.9535 107.359C101.547 103.757 100.766 99.5445 97.985 96.7531C95.0949 93.8514 92.3991 90.7171 89.921 87.3809C90.0892 86.9474 90.2268 86.4979 90.3319 86.0346L91.2644 81.9148L94.9718 79.8903C98.4848 77.9718 100.429 74.0667 99.8432 70.107L99.2248 65.9286L101.95 62.7017C104.533 59.6435 104.936 55.2997 102.959 51.8192L100.873 48.1465L102.248 44.1528C103.552 40.3683 102.358 36.1725 99.2575 33.6413L95.9854 30.9695L95.8253 26.7483C95.6739 22.7485 93.045 19.2673 89.2394 18.0273L85.2233 16.7184L83.5492 12.8401C82.0328 9.32616 78.575 7.07266 74.7812 7.07241C74.6071 7.07216 74.4328 7.07709 74.2573 7.08669L70.0396 7.31712L67.0778 4.30539C65.2425 2.43913 62.7732 1.45047 60.2641 1.45047C58.9362 1.45047 57.5975 1.72717 56.3349 2.29733L52.4854 4.03533L48.6355 2.29708C47.3731 1.72717 46.0341 1.45047 44.7065 1.45047C42.1972 1.45022 39.7283 2.43888 37.8928 4.30539L34.9308 7.31687L30.7133 7.08669C30.538 7.07709 30.3635 7.07241 30.1894 7.07241C26.3954 7.07216 22.9381 9.32591 21.4214 12.8398L19.7474 16.7184L15.7312 18.0273C11.9256 19.2673 9.29667 22.7485 9.14502 26.7483L8.98501 30.9695L5.71283 33.6413C2.61223 36.1725 1.41853 40.3683 2.72227 44.1528L4.0979 48.1465L2.01181 51.8192C0.0347551 55.2997 0.437254 59.6435 3.02016 62.7015L5.74557 65.9286Z" fill="#DDCAC6"/>
<path d="M82.2489 82.5144L84.1341 74.1872L91.6272 70.0951L90.3771 61.6492L95.8863 55.1265L91.6695 47.7025L94.4504 39.6304L87.8366 34.231L87.5133 25.699L79.3957 23.0536L76.0125 15.2146L67.4874 15.6801L61.5008 9.59268L53.7195 13.1064L45.938 9.59268L39.9515 15.6801L31.4264 15.2146L28.043 23.0536L19.9253 25.699L19.6023 34.231L12.9885 39.6304L15.7691 47.7025L11.5526 55.1265L17.0615 61.6492L15.8114 70.0951L23.3048 74.1872L25.19 82.5144L29.6453 83.0981C26.221 88.8835 21.4504 95.596 14.9875 102.084L34.6356 101.187L42.9359 114.996C47.7221 108.267 50.7503 100.13 52.6602 92.828L53.7195 93.5668L54.7787 92.828C56.6886 100.13 59.7166 108.267 64.503 114.996L72.8031 101.187L92.4512 102.084C85.9883 95.596 81.2179 88.8835 77.7933 83.0981L82.2489 82.5144Z" fill="white"/>
<path d="M61.4998 9.59032L67.4863 15.6778L76.0114 15.2122L79.3946 23.0513L87.5123 25.6967L87.8355 34.2287L94.4493 39.6281L91.6685 47.7002L95.8852 55.1241L90.3761 61.6468L91.6261 70.0927L84.133 74.1849L82.2475 82.5118L77.7922 83.0957C81.2168 88.8811 85.9875 95.5936 92.4501 102.082L72.802 101.185L64.5019 114.994C59.7155 108.265 56.6875 100.127 54.7777 92.8256L53.7184 93.5644L52.6591 92.8256C50.7492 100.127 47.721 108.265 42.9348 114.994L34.6345 101.185L14.9867 102.082C21.4493 95.5936 26.2197 88.8811 29.6443 83.0957L25.1889 82.5118L23.3037 74.1849L15.8104 70.0927L17.0605 61.6468L11.5515 55.1241L15.7683 47.7002L12.9874 39.6281L19.6012 34.2287L19.9242 25.6967L28.0419 23.0513L31.4254 15.2122L39.9504 15.6778L45.937 9.59032L53.7184 13.104L61.4998 9.59032ZM45.9394 0.0371705C43.4301 0.0369204 40.9612 1.02558 39.1258 2.89209L36.164 5.90357L31.9463 5.67339C31.7712 5.6638 31.5964 5.65911 31.4224 5.65911C27.6286 5.65911 24.171 7.91261 22.6543 11.4265L20.9803 15.305L16.9644 16.614C13.1586 17.854 10.5296 21.3354 10.3782 25.3353L10.2182 29.5565L6.94601 32.228C3.84543 34.7592 2.65148 38.955 3.95522 42.7395L5.3311 46.7332L3.24501 50.4059C1.26796 53.8864 1.67046 58.2304 4.25309 61.2882L6.97878 64.5153L6.36037 68.6941C5.77423 72.6536 7.71877 76.5587 11.2317 78.477L14.9391 80.5015L15.8717 84.6213C15.9765 85.0843 16.1144 85.5343 16.2825 85.9679C13.8045 89.3041 11.1086 92.4386 8.21851 95.3398C5.43794 98.1312 4.65634 102.343 6.25008 105.946C7.78475 109.415 11.2184 111.635 14.9842 111.635C15.1299 111.635 15.2757 111.632 15.4221 111.625L29.3808 110.988L34.747 119.915C36.407 122.677 39.3471 124.415 42.5668 124.54C42.6899 124.544 42.813 124.547 42.9358 124.547C46.0192 124.547 48.9231 123.056 50.7194 120.531C51.7687 119.055 52.7689 117.495 53.7184 115.853C54.6679 117.495 55.6681 119.055 56.7173 120.531C58.5134 123.056 61.4175 124.547 64.5009 124.547C64.6238 124.547 64.7466 124.544 64.8699 124.54C68.0894 124.415 71.0298 122.677 72.6897 119.915L78.0556 110.988L92.0144 111.625C92.1608 111.632 92.3071 111.635 92.4523 111.635C96.2186 111.635 99.6517 109.415 101.186 105.946C102.78 102.343 101.999 98.1312 99.2182 95.3398C96.3281 92.4384 93.632 89.3038 91.154 85.9676C91.3221 85.5341 91.46 85.0846 91.5648 84.6213L92.4976 80.5015L96.205 78.477C99.718 76.5585 101.663 72.6534 101.076 68.6939L100.458 64.5153L103.183 61.2884C105.766 58.2304 106.169 53.8864 104.192 50.4059L102.106 46.7332L103.481 42.7395C104.785 38.955 103.591 34.7592 100.491 32.228L97.2185 29.5565L97.0585 25.3353C96.9069 21.3354 94.2782 17.854 90.4723 16.614L86.4562 15.305L84.7824 11.4268C83.266 7.91311 79.8082 5.65936 76.0141 5.65911C75.8401 5.65911 75.6658 5.6638 75.4905 5.67339L71.2727 5.90382L68.311 2.89209C66.4755 1.02581 64.0061 0.0371705 61.4971 0.0371705C60.1692 0.0371705 58.8305 0.313871 57.5681 0.884027L53.7184 2.62228L49.8684 0.883777C48.6063 0.313871 47.2671 0.0371705 45.9394 0.0371705Z" fill="white"/>
<path d="M70.3751 67.2268C70.3751 67.2268 75.8499 85.4129 92.4579 102.085L72.8098 101.188L64.5097 114.997C52.696 98.3901 51.5889 73.1927 51.5889 73.1927L70.3751 67.2268Z" fill="#CC7587"/>
<path d="M37.0768 67.2268C37.0768 67.2268 31.6023 85.4129 14.994 102.085L34.6421 101.188L42.9425 114.997C54.756 98.3901 55.8633 73.1927 55.8633 73.1927L37.0768 67.2268Z" fill="#CC7587"/>
<path d="M53.7218 13.1059L61.5032 9.59195L67.4898 15.6794L76.0149 15.2139L79.3983 23.0529L87.5157 25.6985L87.839 34.2303L94.4528 39.6294L91.6719 47.7018L95.8887 55.1258L90.3798 61.6485L91.6296 70.0943L84.1365 74.1865L82.2513 82.5137L73.7857 83.6227L69.0195 90.7064L60.7251 88.6823L53.7218 93.566L46.7186 88.6823L38.4242 90.7064L33.658 83.6227L25.1924 82.5137L23.3072 74.1865L15.8138 70.0943L17.0639 61.6485L11.555 55.1258L15.7717 47.7018L12.9909 39.6294L19.6047 34.2303L19.9277 25.6985L28.0454 23.0529L31.4288 15.2139L39.9539 15.6794L45.9405 9.59195L53.7218 13.1059Z" fill="#DF8C9A"/>
<path d="M84.0759 51.3705C84.0759 68.1353 70.4852 81.726 53.7204 81.726C36.9552 81.726 23.3648 68.1353 23.3648 51.3705C23.3648 34.6053 36.9552 21.0146 53.7204 21.0146C70.4852 21.0146 84.0759 34.6053 84.0759 51.3705Z" fill="#FFC15B"/>
<path d="M53.7187 78.9124C38.647 78.9124 26.3852 66.6506 26.3852 51.5781C26.3852 36.5065 38.647 24.2446 53.7187 24.2446C68.7911 24.2446 81.0529 36.5065 81.0529 51.5781C81.0529 66.6506 68.7911 78.9124 53.7187 78.9124ZM53.7187 24.8958C39.0057 24.8958 27.0365 36.8651 27.0365 51.5781C27.0365 66.2909 39.0057 78.261 53.7187 78.261C68.4314 78.261 80.4018 66.2909 80.4018 51.5781C80.4018 36.8651 68.4314 24.8958 53.7187 24.8958Z" fill="#DB9A3D"/>
<path d="M20.0418 37.9515H19.1733V34.2307H20.0418V37.9515Z" fill="#CC7587"/>
<path d="M27.4168 26.2272L26.594 25.9473L27.6305 22.9112L28.4532 23.1909L27.4168 26.2272Z" fill="#CC7587"/>
<path d="M38.52 17.7981L37.8925 17.1977L39.6371 15.377L40.2646 15.9774L38.52 17.7981Z" fill="#CC7587"/>
<path d="M51.8725 14.4724L51.4978 13.6889L53.5307 12.7145L53.9054 13.4981L51.8725 14.4724Z" fill="#CC7587"/>
<path d="M65.5489 16.26L65.4844 15.3932L67.4556 15.2457L67.5198 16.1125L65.5489 16.26Z" fill="#CC7587"/>
<path d="M79.2859 23.4711L77.3056 22.9209L77.538 22.0847L79.5183 22.6351L79.2859 23.4711Z" fill="#CC7587"/>
<path d="M87.5724 34.5773L86.0882 33.4424L86.6158 32.7521L88.1 33.887L87.5724 34.5773Z" fill="#CC7587"/>
<path d="M16.3028 50.3074L15.3641 47.8564L16.1748 47.546L17.1137 49.9969L16.3028 50.3074Z" fill="#CC7587"/>
<path d="M18.3046 63.7848L16.7271 61.9291L17.3885 61.3661L18.966 63.2216L18.3046 63.7848Z" fill="#CC7587"/>
<path d="M25.2552 75.7208L23.1068 74.5689L23.5175 73.804L25.6656 74.9556L25.2552 75.7208Z" fill="#CC7587"/>
<path d="M36.1873 84.3773L33.6039 84.0551L33.7107 83.1935L36.2941 83.5157L36.1873 84.3773Z" fill="#CC7587"/>
<path d="M46.8518 89.094L46.5872 88.2661L48.7161 87.5842L48.9805 88.4121L46.8518 89.094Z" fill="#CC7587"/>
<path d="M60.9698 89.0402L60.471 88.3295L62.5793 86.8478L63.0781 87.5585L60.9698 89.0402Z" fill="#CC7587"/>
<path d="M74.1567 83.8465L73.4155 83.3953L74.5459 81.5389L75.2872 81.9901L74.1567 83.8465Z" fill="#CC7587"/>
<path d="M84.5706 74.2573L83.714 74.12L84.066 71.9334L84.9224 72.0708L84.5706 74.2573Z" fill="#CC7587"/>
<path d="M89.9494 61.7066L89.6577 59.5627L90.5176 59.4457L90.8095 61.5897L89.9494 61.7066Z" fill="#CC7587"/>
<path d="M91.298 47.9268L90.0184 45.8259L90.7596 45.3746L92.0392 47.4755L91.298 47.9268Z" fill="#CC7587"/>
</svg>
