<svg width="44" height="52" viewBox="0 0 44 52" fill="none" xmlns="http://www.w3.org/2000/svg">
<path d="M2.93479 27.179L2.68582 28.8613C2.44994 30.4554 3.23271 32.0276 4.64711 32.8L6.13961 33.615L6.51504 35.2736C6.55726 35.4601 6.61276 35.6413 6.68045 35.8158C5.68281 37.1589 4.59745 38.4208 3.4339 39.5889C2.31455 40.7127 1.99978 42.4084 2.64152 43.859C3.25927 45.2556 4.64166 46.1491 6.15775 46.1491C6.21642 46.1491 6.2751 46.1479 6.33406 46.1451L11.9538 45.8886L14.1143 49.4829C14.7825 50.5946 15.9663 51.2946 17.2624 51.3447C17.3121 51.3465 17.3617 51.3474 17.411 51.3474C18.6525 51.3474 19.8216 50.7474 20.5447 49.7307C20.9671 49.1368 21.3699 48.5086 21.752 47.8474C22.1343 48.5086 22.537 49.1368 22.9595 49.7307C23.6825 50.7473 24.8518 51.3474 26.0932 51.3474C26.1426 51.3474 26.192 51.3465 26.2416 51.3447C27.5379 51.2946 28.7216 50.5946 29.3898 49.4829L31.5503 45.8886L37.17 46.1451C37.2289 46.1479 37.2877 46.1491 37.3463 46.1491C38.8626 46.1491 40.2448 45.2557 40.8626 43.859C41.5043 42.4085 41.1896 40.7127 40.0702 39.5889C38.9066 38.4207 37.8213 37.1588 36.8236 35.8157C36.8913 35.6411 36.9467 35.4602 36.989 35.2737L37.3645 33.615L38.857 32.8C40.2714 32.0276 41.0542 30.4554 40.8182 28.8612L40.5693 27.179L41.6666 25.8799C42.7064 24.6486 42.8684 22.8999 42.0726 21.4986L41.2327 20.02L41.7865 18.4121C42.3114 16.8885 41.8307 15.1993 40.5825 14.1802L39.2651 13.1046L39.2007 11.4052C39.1397 9.79482 38.0813 8.39331 36.5492 7.89408L34.9323 7.36712L34.2583 5.80574C33.6478 4.39104 32.2557 3.48379 30.7283 3.48369C30.6583 3.48358 30.5881 3.48557 30.5174 3.48943L28.8194 3.5822L27.627 2.36969C26.8881 1.61834 25.8939 1.22031 24.8838 1.22031C24.3492 1.22031 23.8102 1.3317 23.3019 1.56125L21.7521 2.26096L20.2021 1.56115C19.6939 1.3317 19.1549 1.22031 18.6203 1.22031C17.6101 1.22021 16.6161 1.61824 15.8772 2.36969L14.6847 3.5821L12.9867 3.48943C12.9162 3.48557 12.8459 3.48369 12.7758 3.48369C11.2483 3.48358 9.85644 4.39094 9.24582 5.80564L8.57187 7.36712L6.95499 7.89408C5.42285 8.39331 4.36445 9.79482 4.3034 11.4052L4.23897 13.1046L2.9216 14.1802C1.67331 15.1993 1.19273 16.8885 1.71761 18.4121L2.27144 20.02L1.43158 21.4986C0.635625 22.8999 0.797671 24.6487 1.83754 25.8798L2.93479 27.179Z" fill="#DDCAC6"/>
<path d="M33.7348 33.8565L34.4938 30.5039L37.5105 28.8564L37.0073 25.4562L39.2253 22.8302L37.5276 19.8413L38.6471 16.5915L35.9844 14.4177L35.8543 10.9827L32.5862 9.91769L31.2241 6.76172L27.7919 6.94914L25.3817 4.49835L22.249 5.91295L19.1162 4.49835L16.706 6.94914L13.2739 6.76172L11.9117 9.91769L8.64353 10.9827L8.5135 14.4177L5.85081 16.5915L6.97026 19.8413L5.27271 22.8302L7.49059 25.4562L6.98731 28.8564L10.0041 30.5039L10.7631 33.8565L12.5568 34.0914C11.1782 36.4206 9.25753 39.1231 6.65559 41.7351L14.5659 41.3741L17.9076 46.9334C19.8345 44.2246 21.0536 40.9483 21.8225 38.0087L22.249 38.3061L22.6754 38.0087C23.4443 40.9483 24.6634 44.2246 26.5904 46.9334L29.932 41.3741L37.8423 41.7351C35.2403 39.1231 33.3198 36.4206 31.9411 34.0914L33.7348 33.8565Z" fill="white"/>
<path d="M25.3813 4.49741L27.7914 6.9482L31.2236 6.76078L32.5857 9.91675L35.8538 10.9818L35.984 14.4167L38.6467 16.5905L37.5271 19.8403L39.2248 22.8292L37.0068 25.4552L37.5101 28.8555L34.4933 30.503L33.7343 33.8554L31.9406 34.0905C33.3193 36.4197 35.2399 39.1221 37.8418 41.7342L29.9315 41.3731L26.5899 46.9325C24.6629 44.2235 23.4439 40.9473 22.675 38.0077L22.2485 38.3052L21.822 38.0077C21.0531 40.9473 19.834 44.2235 17.9071 46.9325L14.5654 41.3731L6.6552 41.7342C9.25704 39.1221 11.1776 36.4197 12.5563 34.0905L10.7626 33.8554L10.0036 30.503L6.98683 28.8555L7.49011 25.4552L5.27222 22.8292L6.96988 19.8403L5.85032 16.5905L8.51302 14.4167L8.64305 10.9818L11.9112 9.91675L13.2734 6.76078L16.7056 6.9482L19.1157 4.49741L22.2485 5.91201L25.3813 4.49741ZM19.1167 0.651337C18.1065 0.651236 17.1125 1.04927 16.3735 1.80072L15.1811 3.01313L13.4831 2.92046C13.4126 2.9166 13.3423 2.91472 13.2722 2.91472C11.7448 2.91472 10.3528 3.82197 9.74218 5.23667L9.06823 6.79814L7.45145 7.32511C5.91921 7.82433 4.86082 9.22595 4.79986 10.8363L4.73544 12.5357L3.41806 13.6113C2.16978 14.6303 1.6891 16.3196 2.21398 17.8432L2.7679 19.451L1.92805 20.9297C1.13209 22.3309 1.29414 24.0798 2.3339 25.3108L3.43125 26.6101L3.18229 28.2925C2.94631 29.8865 3.72917 31.4587 5.14348 32.231L6.63608 33.0461L7.01151 34.7047C7.05372 34.8911 7.10923 35.0723 7.17692 35.2468C6.17928 36.59 5.09392 37.8519 3.93037 39.0199C2.81092 40.1437 2.49625 41.8394 3.13788 43.2901C3.75574 44.6867 5.13812 45.5802 6.65421 45.5802C6.71288 45.5802 6.77156 45.5789 6.83053 45.5762L12.4503 45.3197L14.6107 48.9139C15.279 50.0256 16.4626 50.7256 17.7589 50.7757C17.8085 50.7776 17.858 50.7785 17.9075 50.7785C19.1488 50.7785 20.3179 50.1784 21.0411 49.1618C21.4635 48.5678 21.8662 47.9396 22.2485 47.2784C22.6308 47.9396 23.0335 48.5678 23.4559 49.1618C24.179 50.1783 25.3482 50.7785 26.5895 50.7785C26.639 50.7785 26.6884 50.7776 26.7381 50.7757C28.0342 50.7256 29.218 50.0256 29.8863 48.9139L32.0466 45.3197L37.6664 45.5762C37.7253 45.5789 37.7842 45.5802 37.8427 45.5802C39.359 45.5802 40.7412 44.6867 41.359 43.2901C42.0006 41.8395 41.6861 40.1437 40.5666 39.0199C39.4031 37.8518 38.3176 36.5899 37.32 35.2467C37.3877 35.0722 37.4432 34.8912 37.4854 34.7047L37.8609 33.0461L39.3535 32.231C40.7678 31.4586 41.5507 29.8864 41.3147 28.2924L41.0656 26.6101L42.163 25.3109C43.2028 24.0798 43.3648 22.3309 42.5689 20.9297L41.7291 19.451L42.2829 17.8432C42.8078 16.3196 42.3272 14.6303 41.0789 13.6113L39.7616 12.5357L39.6971 10.8363C39.6361 9.22595 38.5778 7.82433 37.0455 7.32511L35.4286 6.79814L34.7548 5.23677C34.1443 3.82217 32.7522 2.91482 31.2247 2.91472C31.1546 2.91472 31.0845 2.9166 31.0139 2.92046L29.3158 3.01323L28.1234 1.80072C27.3845 1.04936 26.3903 0.651337 25.3802 0.651337C24.8456 0.651337 24.3066 0.762736 23.7984 0.992279L22.2485 1.69209L20.6985 0.992178C20.1904 0.762736 19.6512 0.651337 19.1167 0.651337Z" fill="white"/>
<path d="M28.9545 27.7017C28.9545 27.7017 31.1586 35.0234 37.845 41.7357L29.9347 41.3745L26.5931 46.934C21.8369 40.248 21.3912 30.1035 21.3912 30.1035L28.9545 27.7017Z" fill="#CC7587"/>
<path d="M15.5487 27.7017C15.5487 27.7017 13.3447 35.0234 6.6582 41.7357L14.5685 41.3745L17.9102 46.934C22.6663 40.248 23.1121 30.1035 23.1121 30.1035L15.5487 27.7017Z" fill="#CC7587"/>
<path d="M22.2499 5.91277L25.3827 4.49808L27.7929 6.94887L31.2251 6.76145L32.5872 9.91742L35.8553 10.9825L35.9854 14.4174L38.6481 16.5911L37.5286 19.841L39.2262 22.8299L37.0083 25.4559L37.5115 28.8562L34.4948 30.5037L33.7358 33.8562L30.3276 34.3027L28.4087 37.1545L25.0694 36.3397L22.2499 38.3058L19.4305 36.3397L16.0912 37.1545L14.1723 34.3027L10.7641 33.8562L10.0051 30.5037L6.98829 28.8562L7.49157 25.4559L5.27368 22.8299L6.97134 19.841L5.85178 16.5911L8.51448 14.4174L8.64451 10.9825L11.9127 9.91742L13.2748 6.76145L16.707 6.94887L19.1172 4.49808L22.2499 5.91277Z" fill="#DF8C9A"/>
<path d="M34.4705 21.318C34.4705 28.0675 28.9989 33.539 22.2494 33.539C15.4998 33.539 10.0283 28.0675 10.0283 21.318C10.0283 14.5684 15.4998 9.0968 22.2494 9.0968C28.9989 9.0968 34.4705 14.5684 34.4705 21.318Z" fill="#FFC15B"/>
<path d="M22.2487 32.4063C16.1808 32.4063 11.2443 27.4697 11.2443 21.4016C11.2443 15.3338 16.1808 10.3972 22.2487 10.3972C28.3168 10.3972 33.2534 15.3338 33.2534 21.4016C33.2534 27.4697 28.3168 32.4063 22.2487 32.4063ZM22.2487 10.6594C16.3253 10.6594 11.5065 15.4782 11.5065 21.4016C11.5065 27.3249 16.3253 32.1441 22.2487 32.1441C28.172 32.1441 32.9912 27.3249 32.9912 21.4016C32.9912 15.4782 28.172 10.6594 22.2487 10.6594Z" fill="#DB9A3D"/>
<path d="M8.69048 15.9156H8.34082V14.4176H8.69048V15.9156Z" fill="#CC7587"/>
<path d="M11.6596 11.1954L11.3284 11.0827L11.7456 9.86038L12.0768 9.97297L11.6596 11.1954Z" fill="#CC7587"/>
<path d="M16.1297 7.80186L15.8771 7.56013L16.5795 6.82712L16.8321 7.06884L16.1297 7.80186Z" fill="#CC7587"/>
<path d="M21.5055 6.46294L21.3546 6.14747L22.1731 5.75519L22.3239 6.07066L21.5055 6.46294Z" fill="#CC7587"/>
<path d="M27.0116 7.18259L26.9856 6.83363L27.7792 6.77426L27.805 7.12323L27.0116 7.18259Z" fill="#CC7587"/>
<path d="M32.542 10.0858L31.7448 9.86427L31.8383 9.52759L32.6356 9.7492L32.542 10.0858Z" fill="#CC7587"/>
<path d="M35.8782 14.5571L35.2806 14.1002L35.493 13.8223L36.0906 14.2792L35.8782 14.5571Z" fill="#CC7587"/>
<path d="M7.18515 20.89L6.80725 19.9033L7.13362 19.7783L7.51163 20.765L7.18515 20.89Z" fill="#CC7587"/>
<path d="M7.99106 26.316L7.35596 25.5689L7.62227 25.3422L8.25737 26.0892L7.99106 26.316Z" fill="#CC7587"/>
<path d="M10.7894 31.1214L9.92444 30.6576L10.0898 30.3497L10.9546 30.8133L10.7894 31.1214Z" fill="#CC7587"/>
<path d="M15.1906 34.6065L14.1505 34.4767L14.1935 34.1298L15.2336 34.2596L15.1906 34.6065Z" fill="#CC7587"/>
<path d="M19.4841 36.5054L19.3776 36.1721L20.2347 35.8976L20.3411 36.2309L19.4841 36.5054Z" fill="#CC7587"/>
<path d="M25.168 36.4837L24.9672 36.1976L25.8159 35.6011L26.0167 35.8872L25.168 36.4837Z" fill="#CC7587"/>
<path d="M30.477 34.3928L30.1786 34.2111L30.6337 33.4637L30.9321 33.6454L30.477 34.3928Z" fill="#CC7587"/>
<path d="M34.6696 30.5322L34.3247 30.4769L34.4664 29.5966L34.8112 29.6519L34.6696 30.5322Z" fill="#CC7587"/>
<path d="M36.8351 25.4793L36.7177 24.6162L37.0638 24.5691L37.1814 25.4322L36.8351 25.4793Z" fill="#CC7587"/>
<path d="M37.378 19.9316L36.8628 19.0858L37.1612 18.9041L37.6764 19.7499L37.378 19.9316Z" fill="#CC7587"/>
<path d="M15.5509 24.4894C15.0605 24.4894 14.6224 24.4133 14.2368 24.261C13.8531 24.1087 13.5505 23.902 13.329 23.641C13.1095 23.3799 12.9997 23.0853 12.9997 22.757C12.9997 22.5058 13.062 22.2764 13.1866 22.0687C13.3132 21.8611 13.4833 21.689 13.6969 21.5526C13.9104 21.4141 14.1488 21.3251 14.4118 21.2856V21.2381C14.0657 21.1788 13.7809 21.0255 13.5574 20.7783C13.3359 20.5291 13.2252 20.2354 13.2252 19.8973C13.2252 19.5788 13.326 19.296 13.5278 19.0488C13.7295 18.7996 14.0054 18.6039 14.3554 18.4615C14.7055 18.3191 15.104 18.2479 15.5509 18.2479C15.9979 18.2479 16.3964 18.3201 16.7464 18.4644C17.0965 18.6068 17.3724 18.8026 17.5741 19.0518C17.7758 19.299 17.8767 19.5808 17.8767 19.8973C17.8767 20.2374 17.7639 20.5311 17.5385 20.7783C17.313 21.0255 17.0302 21.1788 16.6901 21.2381V21.2856C16.9511 21.3251 17.1884 21.4141 17.402 21.5526C17.6156 21.689 17.7857 21.8611 17.9123 22.0687C18.0388 22.2764 18.1021 22.5058 18.1021 22.757C18.1021 23.0853 17.9914 23.3799 17.7699 23.641C17.5504 23.902 17.2478 24.1087 16.8621 24.261C16.4785 24.4133 16.0414 24.4894 15.5509 24.4894ZM15.5509 23.3503C15.7072 23.3503 15.8456 23.3186 15.9662 23.2553C16.0869 23.1921 16.1818 23.105 16.251 22.9943C16.3222 22.8816 16.3578 22.755 16.3578 22.6146C16.3578 22.4742 16.3222 22.3496 16.251 22.2408C16.1818 22.132 16.0869 22.047 15.9662 21.9857C15.8456 21.9224 15.7072 21.8907 15.5509 21.8907C15.3967 21.8907 15.2582 21.9224 15.1356 21.9857C15.015 22.047 14.9191 22.132 14.8479 22.2408C14.7786 22.3496 14.744 22.4742 14.744 22.6146C14.744 22.755 14.7786 22.8806 14.8479 22.9913C14.9191 23.1021 15.015 23.1901 15.1356 23.2553C15.2582 23.3186 15.3967 23.3503 15.5509 23.3503ZM15.5509 20.7516C15.6894 20.7516 15.812 20.7229 15.9188 20.6656C16.0256 20.6082 16.1096 20.5291 16.1709 20.4283C16.2322 20.3274 16.2629 20.2137 16.2629 20.0871C16.2629 19.9605 16.2322 19.8488 16.1709 19.7519C16.1096 19.653 16.0256 19.5759 15.9188 19.5205C15.812 19.4632 15.6894 19.4345 15.5509 19.4345C15.4145 19.4345 15.2919 19.4632 15.1831 19.5205C15.0763 19.5759 14.9922 19.653 14.9309 19.7519C14.8696 19.8488 14.839 19.9605 14.839 20.0871C14.839 20.2137 14.8696 20.3274 14.9309 20.4283C14.9922 20.5271 15.0763 20.6062 15.1831 20.6656C15.2919 20.7229 15.4145 20.7516 15.5509 20.7516ZM21.4847 24.5725C20.9329 24.5705 20.4563 24.4429 20.0548 24.1898C19.6534 23.9366 19.3439 23.5718 19.1263 23.0951C18.9088 22.6185 18.801 22.047 18.803 21.3805C18.8049 20.7121 18.9137 20.1445 19.1293 19.6777C19.3468 19.211 19.6553 18.856 20.0548 18.6128C20.4563 18.3695 20.9329 18.2479 21.4847 18.2479C22.0365 18.2479 22.5131 18.3705 22.9145 18.6157C23.316 18.859 23.6255 19.214 23.8431 19.6807C24.0606 20.1474 24.1684 20.714 24.1664 21.3805C24.1664 22.0509 24.0576 22.6245 23.8401 23.1011C23.6225 23.5777 23.313 23.9426 22.9116 24.1957C22.5121 24.4469 22.0365 24.5725 21.4847 24.5725ZM21.4847 23.2316C21.7695 23.2316 22.0028 23.0833 22.1848 22.7866C22.3687 22.488 22.4597 22.0193 22.4577 21.3805C22.4577 20.9632 22.4162 20.6221 22.3331 20.3571C22.25 20.0921 22.1353 19.8963 21.989 19.7697C21.8426 19.6411 21.6745 19.5769 21.4847 19.5769C21.1999 19.5769 20.9675 19.7212 20.7876 20.01C20.6076 20.2987 20.5156 20.7556 20.5117 21.3805C20.5097 21.8057 20.5502 22.1558 20.6333 22.4306C20.7164 22.7036 20.8311 22.9053 20.9774 23.0358C21.1257 23.1663 21.2948 23.2316 21.4847 23.2316ZM28.4174 23.2672V22.9468C28.4174 22.6897 28.4728 22.4524 28.5835 22.2349C28.6963 22.0173 28.8594 21.8423 29.073 21.7098C29.2866 21.5773 29.5467 21.511 29.8532 21.511C30.1676 21.511 30.4317 21.5763 30.6453 21.7068C30.8608 21.8373 31.024 22.0114 31.1347 22.2289C31.2455 22.4465 31.3009 22.6858 31.3009 22.9468V23.2672C31.3009 23.5243 31.2445 23.7616 31.1318 23.9792C31.021 24.1967 30.8579 24.3717 30.6423 24.5042C30.4267 24.6367 30.1637 24.703 29.8532 24.703C29.5427 24.703 29.2807 24.6367 29.0671 24.5042C28.8535 24.3717 28.6913 24.1967 28.5806 23.9792C28.4718 23.7616 28.4174 23.5243 28.4174 23.2672ZM29.4498 22.9468V23.2672C29.4498 23.3799 29.4774 23.4917 29.5328 23.6024C29.5902 23.7112 29.697 23.7656 29.8532 23.7656C30.0173 23.7656 30.1251 23.7122 30.1765 23.6054C30.2299 23.4986 30.2566 23.3859 30.2566 23.2672V22.9468C30.2566 22.8282 30.2319 22.7135 30.1825 22.6027C30.133 22.492 30.0233 22.4366 29.8532 22.4366C29.697 22.4366 29.5902 22.492 29.5328 22.6027C29.4774 22.7135 29.4498 22.8282 29.4498 22.9468ZM25.2373 19.7905V19.4701C25.2373 19.209 25.2937 18.9697 25.4064 18.7522C25.5211 18.5346 25.6853 18.3606 25.8988 18.2301C26.1124 18.0995 26.3705 18.0343 26.6731 18.0343C26.9876 18.0343 27.2516 18.0995 27.4652 18.2301C27.6807 18.3606 27.8439 18.5346 27.9546 18.7522C28.0654 18.9697 28.1208 19.209 28.1208 19.4701V19.7905C28.1208 20.0515 28.0644 20.2898 27.9517 20.5054C27.8409 20.721 27.6778 20.893 27.4622 21.0216C27.2466 21.1501 26.9836 21.2144 26.6731 21.2144C26.3626 21.2144 26.1006 21.1491 25.887 21.0186C25.6734 20.8881 25.5112 20.715 25.4005 20.4995C25.2917 20.2839 25.2373 20.0476 25.2373 19.7905ZM26.2815 19.4701V19.7905C26.2815 19.9091 26.3092 20.0218 26.3646 20.1286C26.42 20.2354 26.5228 20.2888 26.6731 20.2888C26.8372 20.2888 26.945 20.2354 26.9965 20.1286C27.0498 20.0218 27.0765 19.9091 27.0765 19.7905V19.4701C27.0765 19.3514 27.0518 19.2367 27.0024 19.126C26.9529 19.0152 26.8432 18.9598 26.6731 18.9598C26.5169 18.9598 26.412 19.0172 26.3587 19.1319C26.3072 19.2446 26.2815 19.3573 26.2815 19.4701ZM25.7416 24.4063L29.9185 18.3309H30.7609L26.5841 24.4063H25.7416Z" fill="#EEEEEE"/>
</svg>
