<svg width="335" height="163" viewBox="0 0 335 163" fill="none" xmlns="http://www.w3.org/2000/svg">
<g clip-path="url(#clip0_279_4631)">
<rect width="335" height="163" rx="8" fill="#8E73EF"/>
<mask id="mask0_279_4631" style="mask-type:luminance" maskUnits="userSpaceOnUse" x="0" y="-63" width="495" height="291">
<path d="M494.793 -63H0V227.869H494.793V-63Z" fill="white"/>
</mask>
<g mask="url(#mask0_279_4631)">
<g style="mix-blend-mode:overlay" opacity="0.09">
<path d="M110.523 -181.704C107.114 -149.884 99.3217 -119.028 79.8409 -90.5833C79.3539 -89.619 79.3539 -89.1369 78.8668 -88.1727C73.9966 -81.423 69.6135 -75.6375 64.2562 -68.8878C63.7692 -68.4057 62.7952 -67.9236 62.3082 -67.4415C55.4899 -59.2454 48.1846 -52.4957 39.9052 -45.746C1.91769 -11.9975 -19.0242 35.2504 -23.4073 84.4268" stroke="white" stroke-width="6.27053" stroke-miterlimit="10"/>
<path d="M123.673 -156.635C123.673 -151.331 122.699 -146.51 122.212 -141.207C121.238 -133.011 119.29 -124.815 116.855 -116.618C114.419 -108.422 111.497 -100.708 108.575 -92.9945C104.679 -83.8342 100.296 -75.6381 94.9386 -66.96C85.6853 -52.4963 75.4579 -39.479 62.3083 -28.3902C61.8213 -27.9081 61.3343 -26.9439 60.8473 -26.4618C23.8337 3.42977 0.943808 42.9637 -7.33553 89.2474V92.1401C-8.30957 97.9256 -9.28361 103.711 -9.77063 109.496" stroke="white" stroke-width="6.27053" stroke-miterlimit="10"/>
<path d="M328.708 -75.6377C326.273 -45.2641 319.941 -15.3725 308.74 13.0726C304.844 22.2329 300.46 30.9111 296.077 40.0714C288.285 54.0529 280.493 66.106 270.265 78.6411C266.856 82.4981 263.934 85.873 261.012 89.7299C256.629 94.5511 252.245 98.8902 247.375 103.711C235.687 114.318 224.485 123.478 214.745 136.014C214.258 136.496 213.284 136.978 212.797 137.46C198.673 155.298 186.498 172.655 177.244 192.904C176.757 193.386 176.27 194.35 175.783 194.832C160.686 227.135 151.919 261.847 149.971 297.042" stroke="white" stroke-width="6.27053" stroke-miterlimit="10"/>
<path d="M135.361 -121.921C134.874 -108.422 131.952 -95.4048 128.543 -81.9054C125.621 -72.2629 122.699 -63.1026 118.315 -53.9423C117.828 -53.4602 117.341 -52.496 116.854 -52.0139C105.653 -26.9435 88.6073 -5.24808 66.6914 12.5904C47.2106 29.4647 32.6 49.2316 21.3985 71.8913C16.0413 82.9801 11.6581 94.551 8.736 106.604C6.78792 112.39 5.32686 118.175 4.35282 123.96C3.37878 130.71 2.40474 137.46 1.91772 144.21" stroke="white" stroke-width="6.27053" stroke-miterlimit="10"/>
<path d="M142.18 -74.674C139.745 -39.9612 129.03 -7.177 107.601 22.7145C107.114 23.6788 107.114 24.1609 106.627 25.1251C104.679 28.0179 102.731 30.4285 100.783 32.8391C99.8091 34.2854 98.348 34.7675 97.374 36.2139C89.5816 46.3385 80.8153 53.5703 71.5619 61.7663C66.6917 66.1054 62.3085 70.4445 57.9253 75.2657C55.9773 77.6763 54.0292 80.0869 51.5941 82.4976C48.1849 86.3545 45.7498 89.7294 42.8277 94.0685C41.3667 96.9612 39.4186 99.3718 37.4705 102.265C20.4248 130.228 10.6844 160.119 8.73633 191.939" stroke="white" stroke-width="6.27053" stroke-miterlimit="10"/>
<path d="M171.4 -75.1554C168.965 -35.1393 158.25 2.46614 134.386 37.661C127.081 48.2677 120.263 56.9459 111.496 66.1062C101.269 76.7128 90.0673 85.391 80.3269 96.4798C77.4048 100.337 74.4827 103.712 71.0736 107.569C42.3394 144.692 28.2158 187.601 25.2937 232.438" stroke="white" stroke-width="6.27053" stroke-miterlimit="10"/>
<path d="M204.517 -59.7286C204.517 -52.0147 203.543 -44.7829 202.082 -37.0689V-34.1762C199.647 -18.2662 194.777 -3.32044 189.42 11.6253C186.985 18.8571 183.576 25.1247 180.167 31.8744C173.348 44.8917 165.556 56.9447 156.303 68.5156C144.127 83.4614 130.49 95.0323 116.854 108.05C113.932 110.942 111.984 114.317 109.062 117.21C77.4053 154.815 61.8207 200.617 58.8986 247.865" stroke="white" stroke-width="6.27053" stroke-miterlimit="10"/>
<path d="M244.454 -59.7286C243.48 -46.2292 242.019 -32.7298 238.609 -19.2304C231.791 6.80411 223.025 29.9459 206.953 52.6056C206.466 53.5699 206.466 54.052 205.979 55.0162C191.368 77.1938 172.862 91.6575 154.842 109.978C152.894 112.389 150.946 114.799 148.511 117.21C117.341 154.815 101.27 200.617 98.3477 247.865" stroke="white" stroke-width="6.27053" stroke-miterlimit="10"/>
<path d="M298.026 -72.2637C294.617 -21.1588 274.649 28.0176 239.584 67.5515C239.097 68.0336 238.123 68.5158 237.636 68.9979C236.662 70.4442 235.687 71.4085 234.713 72.8549C223.999 83.4615 213.285 92.1397 202.57 102.264C197.7 107.568 192.83 112.871 187.96 118.656C181.141 126.852 175.784 135.049 169.94 144.209C149.485 177.475 139.258 213.152 135.848 250.758" stroke="white" stroke-width="6.27053" stroke-miterlimit="10"/>
<path d="M361.826 -60.2101C357.929 11.1438 326.273 80.0872 269.779 128.781C261.986 135.531 254.681 142.763 247.863 150.959L243.48 156.744C242.993 157.227 242.019 157.709 241.532 158.191C239.097 161.566 236.661 164.458 234.226 167.833C232.278 171.69 229.843 174.583 227.408 177.958C225.46 180.851 223.999 183.261 222.051 186.154C218.642 192.904 214.258 198.689 211.823 205.921C211.336 206.403 210.849 207.367 210.362 207.849C198.674 232.92 190.395 258.472 186.011 286.435V289.328C184.55 297.042 184.063 304.756 183.576 312.47" stroke="white" stroke-width="6.27053" stroke-miterlimit="10"/>
<path d="M403.222 -63.5842C402.248 -54.4239 401.761 -45.2636 399.813 -35.6211V-32.7284C394.943 -7.17597 388.124 15.4837 377.41 38.6256C376.923 39.1077 376.436 40.0719 375.949 40.554C371.079 52.125 364.747 61.7674 357.929 72.8562C352.085 81.0522 346.728 88.2841 340.396 95.998C334.065 103.712 327.734 110.462 320.429 116.729C313.123 122.997 307.279 128.782 300.461 135.05C279.032 157.227 261.499 181.333 249.811 209.297C249.324 209.779 248.837 210.743 248.35 211.225C234.713 242.563 226.921 275.347 224.486 309.096" stroke="white" stroke-width="6.27053" stroke-miterlimit="10"/>
<path d="M466.535 -82.3868C465.074 -64.5483 462.152 -47.1919 457.281 -29.8356C453.385 -15.854 448.515 -3.31888 442.671 9.69839C442.184 10.1805 441.697 11.1448 441.21 11.6269C435.853 22.7157 430.495 32.8402 423.19 43.4469C422.703 44.4111 422.703 44.8932 422.216 45.8575C416.859 53.5714 411.989 60.3211 406.144 67.0708C399.813 73.8205 394.456 80.0881 387.638 86.3557C371.566 100.337 356.955 113.354 343.319 130.229C331.143 145.657 321.403 160.602 313.611 177.959C313.124 178.441 312.637 179.405 312.15 179.887C298.026 209.779 290.234 241.599 287.312 274.383" stroke="white" stroke-width="6.27053" stroke-miterlimit="10"/>
<path d="M497.704 -87.2084C492.834 -5.72987 454.359 73.338 390.56 125.407C385.203 131.675 378.871 136.496 374.001 143.246C373.514 143.728 372.54 144.21 372.053 144.692C361.339 158.673 351.111 170.727 342.345 186.154C340.397 189.047 338.936 191.458 336.988 194.35C324.325 217.492 315.072 240.152 309.227 265.704C307.279 272.454 305.331 278.722 304.357 285.471C302.409 298.489 299.974 311.024 299.974 324.041" stroke="white" stroke-width="6.27053" stroke-miterlimit="10"/>
<path d="M531.308 -72.2637C529.847 -63.1034 529.847 -53.9431 527.899 -44.3006V-41.4079C525.951 -28.8728 523.029 -17.3018 519.62 -4.76669C518.159 1.01877 515.724 6.3221 514.262 12.1076C513.288 14.5182 512.314 16.4467 511.34 18.8573C508.418 25.1248 506.957 31.3924 504.035 37.1779C488.937 68.5158 469.457 96.4788 445.593 121.067C422.216 141.316 401.761 162.047 383.254 188.564C382.767 189.528 382.767 190.01 382.28 190.975C374.975 200.617 370.105 210.259 364.747 220.384C361.825 226.169 358.903 231.955 356.468 238.222C352.572 247.865 349.65 257.025 346.241 266.668C345.754 268.114 345.754 270.042 345.267 271.489C341.37 283.542 338.935 295.595 336.5 308.13V311.023C334.552 320.665 334.552 329.826 333.091 338.986" stroke="white" stroke-width="6.27053" stroke-miterlimit="10"/>
</g>
</g>
</g>
<defs>
<clipPath id="clip0_279_4631">
<rect width="335" height="163" fill="white"/>
</clipPath>
</defs>
</svg>
