<svg width="83" height="83" viewBox="0 0 83 83" fill="none" xmlns="http://www.w3.org/2000/svg">
<path d="M73.5525 37.7303C74.6606 40.3775 75.263 43.2225 75.263 46.1844C75.263 53.227 71.858 59.607 66.3453 64.2435C65.5188 64.9387 64.9998 65.9452 64.9998 67.0252V75.2635H58.1577L55.4421 71.3888C55.0206 70.7873 54.2632 70.5263 53.5519 70.709C47.6373 72.2297 41.3097 72.2297 35.395 70.709C34.6838 70.5263 33.9264 70.7873 33.505 71.3888L30.7892 75.2635H23.9471V67.1056C23.9471 65.9808 23.3941 64.9278 22.468 64.2894C18.7911 61.754 6.8418 56.7945 6.8418 51.5151V46.1844C6.8418 44.1602 8.37344 42.5191 10.2629 42.5191C12.3382 42.5191 14.0325 41.7128 14.7173 39.5685C17.3414 31.3511 24.7369 24.755 34.2808 21.9658" stroke="white" stroke-width="0.985266" stroke-linecap="round" stroke-linejoin="round"/>
<path d="M48.3228 32.5007V11.9744M54.7373 11.9744V6.84277M54.7373 37.6323V32.5007M48.3228 22.2376H61.1518M61.1518 22.2376C63.2773 22.2376 65.0005 23.9607 65.0005 26.0862V28.652C65.0005 30.7776 63.2773 32.5007 61.1518 32.5007H44.4741M61.1518 22.2376C63.2773 22.2376 65.0005 20.5144 65.0005 18.3889V15.8231C65.0005 13.6975 63.2773 11.9744 61.1518 11.9744H44.4741" stroke="white" stroke-width="0.985266" stroke-linecap="round" stroke-linejoin="round"/>
<path d="M25.6572 41.0527H25.6886" stroke="white" stroke-width="1.31369" stroke-linecap="round" stroke-linejoin="round"/>
</svg>
