<svg width="33" height="32" viewBox="0 0 33 32" fill="none" xmlns="http://www.w3.org/2000/svg">
<rect x="0.666687" width="32" height="32" rx="8" fill="#8E73EF" fill-opacity="0.1"/>
<g clip-path="url(#clip0_279_6384)">
<path d="M20.8334 24C21.2015 24 21.5 23.7015 21.5 23.3333C21.5 22.9651 21.2015 22.6667 20.8334 22.6667C20.4652 22.6667 20.1667 22.9651 20.1667 23.3333C20.1667 23.7015 20.4652 24 20.8334 24Z" fill="#8E73EF"/>
<path d="M24.1667 16.6667C24.1667 18.28 23.02 19.6267 21.5 19.9333V21.3333C21.5 21.7 21.2 22 20.8334 22C20.4667 22 20.1667 21.7 20.1667 21.3333V19.3333C20.1667 18.9667 20.4667 18.6667 20.8334 18.6667C21.9334 18.6667 22.8334 17.7667 22.8334 16.6667C22.8334 15.5667 21.9334 14.6667 20.8334 14.6667C19.7334 14.6667 18.8334 15.5667 18.8334 16.6667C18.8334 17.0333 18.5334 17.3333 18.1667 17.3333C17.8 17.3333 17.5 17.0333 17.5 16.6667C17.5 14.8267 18.9934 13.3333 20.8334 13.3333C22.6734 13.3333 24.1667 14.8267 24.1667 16.6667ZM13.5 12.6667H11.5C11.1314 12.6667 10.8334 12.368 10.8334 12C10.8334 11.632 11.1314 11.3333 11.5 11.3333H13.5C13.8687 11.3333 14.1667 11.632 14.1667 12C14.1667 12.368 13.8687 12.6667 13.5 12.6667ZM16.1667 14.6667C16.1667 15.0333 15.8667 15.3333 15.5 15.3333H11.5C11.1334 15.3333 10.8334 15.0333 10.8334 14.6667C10.8334 14.3 11.1334 14 11.5 14H15.5C15.8667 14 16.1667 14.3 16.1667 14.6667ZM16.1667 17.3333C16.1667 17.7 15.8667 18 15.5 18H11.5C11.1334 18 10.8334 17.7 10.8334 17.3333C10.8334 16.9667 11.1334 16.6667 11.5 16.6667H15.5C15.8667 16.6667 16.1667 16.9667 16.1667 17.3333Z" fill="#8E73EF"/>
<path d="M20.1667 9.33333V11.3067C20.1667 11.6733 19.8667 11.9733 19.5 11.9733C19.1334 11.9733 18.8334 11.6733 18.8334 11.3067V9.66667C18.8334 9.48 18.6867 9.33333 18.5 9.33333H9.83335C9.64669 9.33333 9.50002 9.48 9.50002 9.66667V22.3333C9.50002 22.52 9.64002 22.6667 9.82669 22.6667H18.1667C18.5334 22.6667 18.8334 22.9667 18.8334 23.3333C18.8334 23.7 18.5334 24 18.1667 24H9.50002C8.76669 24 8.16669 23.4 8.16669 22.6667V9.33333C8.16669 8.6 8.76669 8 9.50002 8H18.8334C19.5667 8 20.1667 8.6 20.1667 9.33333Z" fill="#8E73EF"/>
<path d="M16.1667 20C16.1667 20.3667 15.8667 20.6667 15.5 20.6667H11.5C11.1334 20.6667 10.8334 20.3667 10.8334 20C10.8334 19.6333 11.1334 19.3333 11.5 19.3333H15.5C15.8667 19.3333 16.1667 19.6333 16.1667 20Z" fill="#8E73EF"/>
</g>
<defs>
<clipPath id="clip0_279_6384">
<rect width="16" height="16" fill="white" transform="translate(8.16669 8)"/>
</clipPath>
</defs>
</svg>
