<svg width="298" height="245" viewBox="0 0 298 245" fill="none" xmlns="http://www.w3.org/2000/svg">
<path d="M149 0.776367C165.937 0.776366 182.689 4.30401 198.188 11.1346C213.686 17.9651 227.593 27.9489 239.021 40.4498C250.449 52.9508 259.148 67.6949 264.564 83.7429C269.979 99.7909 271.994 116.791 270.478 133.66L149 122.744L149 0.776367Z" fill="#7086FD"/>
<path d="M270.478 133.66C267.911 162.22 255.364 188.962 235.04 209.191C214.716 229.419 187.915 241.84 159.343 244.271L149 122.744L270.478 133.66Z" fill="#6FD195"/>
<path d="M159.343 244.271C136.259 246.236 113.092 241.585 92.5542 230.863C72.0164 220.141 54.9573 203.791 43.3732 183.727L149 122.744L159.343 244.271Z" fill="#FFAE4C"/>
<path d="M43.3732 183.727C35.0984 169.395 29.827 153.528 27.8798 137.094C25.9327 120.659 27.3506 104 32.0472 88.1306L149 122.744L43.3732 183.727Z" fill="#E8E3FB"/>
<path d="M32.0472 88.1306C38.1784 67.414 49.7025 48.6978 65.4406 33.8963L149 122.744L32.0472 88.1306Z" fill="#8E73EF"/>
<path d="M65.4406 33.8963C74.9606 24.9429 85.8578 17.5777 97.7152 12.0825L149 122.744L65.4406 33.8963Z" fill="#AA98EC"/>
<path d="M97.7152 12.0825C106.775 7.88402 116.315 4.8139 126.123 2.94106L149 122.744L97.7152 12.0825Z" fill="#FF718B"/>
<path d="M126.123 2.94106C133.663 1.50115 141.323 0.776367 149 0.776367V122.744L126.123 2.94106Z" fill="#AA98EC"/>
<path d="M181.888 61.1338C181.845 60.768 181.669 60.4841 181.361 60.282C181.053 60.0798 180.676 59.9788 180.228 59.9788C179.901 59.9788 179.614 60.0317 179.369 60.1376C179.126 60.2435 178.936 60.389 178.799 60.5743C178.664 60.7596 178.597 60.9701 178.597 61.206C178.597 61.4033 178.643 61.5729 178.737 61.7149C178.834 61.8544 178.956 61.9711 179.105 62.065C179.255 62.1564 179.411 62.2322 179.575 62.2924C179.738 62.3501 179.889 62.397 180.026 62.4331L180.777 62.6353C180.969 62.6858 181.183 62.7556 181.419 62.8446C181.657 62.9336 181.885 63.0551 182.101 63.2091C182.32 63.3607 182.501 63.5556 182.643 63.7939C182.785 64.0321 182.856 64.3244 182.856 64.6709C182.856 65.0704 182.751 65.4313 182.542 65.7537C182.335 66.0762 182.031 66.3324 181.632 66.5225C181.235 66.7126 180.753 66.8077 180.185 66.8077C179.655 66.8077 179.197 66.7222 178.809 66.5514C178.425 66.3806 178.121 66.1423 177.9 65.8368C177.681 65.5312 177.557 65.1762 177.528 64.772H178.452C178.476 65.0511 178.57 65.2821 178.734 65.465C178.9 65.6455 179.109 65.7802 179.362 65.8692C179.617 65.9559 179.891 65.9992 180.185 65.9992C180.526 65.9992 180.833 65.9438 181.105 65.8331C181.377 65.7201 181.592 65.5636 181.751 65.3639C181.91 65.1618 181.989 64.926 181.989 64.6565C181.989 64.4111 181.921 64.2113 181.784 64.0573C181.646 63.9033 181.466 63.7782 181.242 63.682C181.018 63.5857 180.777 63.5015 180.517 63.4293L179.607 63.1694C179.03 63.0034 178.572 62.7664 178.236 62.4584C177.899 62.1504 177.73 61.7474 177.73 61.2493C177.73 60.8354 177.842 60.4745 178.066 60.1665C178.292 59.8561 178.595 59.6154 178.976 59.4446C179.358 59.2713 179.785 59.1847 180.257 59.1847C180.733 59.1847 181.157 59.2701 181.527 59.441C181.898 59.6094 182.191 59.8404 182.408 60.134C182.627 60.4275 182.742 60.7608 182.755 61.1338H181.888ZM187.706 64.4111V61.1338H188.557V66.6777H187.706V65.7393H187.648C187.518 66.0208 187.316 66.2603 187.042 66.4576C186.767 66.6525 186.421 66.7499 186.002 66.7499C185.656 66.7499 185.348 66.6741 185.078 66.5225C184.809 66.3685 184.597 66.1375 184.443 65.8295C184.289 65.5191 184.212 65.1281 184.212 64.6565V61.1338H185.064V64.5987C185.064 65.003 185.177 65.3254 185.403 65.5661C185.631 65.8067 185.923 65.927 186.276 65.927C186.488 65.927 186.703 65.8728 186.922 65.7646C187.144 65.6563 187.329 65.4903 187.478 65.2665C187.63 65.0427 187.706 64.7576 187.706 64.4111ZM190.118 68.7567V61.1338H190.941V62.0145H191.042C191.104 61.9182 191.191 61.7955 191.301 61.6463C191.415 61.4947 191.576 61.36 191.785 61.2421C191.997 61.1217 192.283 61.0616 192.644 61.0616C193.111 61.0616 193.522 61.1783 193.879 61.4117C194.235 61.6451 194.513 61.976 194.712 62.4043C194.912 62.8326 195.012 63.3379 195.012 63.9202C195.012 64.5073 194.912 65.0162 194.712 65.4469C194.513 65.8753 194.236 66.2073 193.882 66.4431C193.528 66.6765 193.121 66.7932 192.659 66.7932C192.302 66.7932 192.017 66.7343 191.803 66.6164C191.589 66.4961 191.424 66.3601 191.309 66.2085C191.193 66.0545 191.104 65.927 191.042 65.8259H190.969V68.7567H190.118ZM190.955 63.9058C190.955 64.3244 191.016 64.6938 191.139 65.0138C191.262 65.3314 191.441 65.5805 191.677 65.761C191.913 65.939 192.201 66.0281 192.543 66.0281C192.899 66.0281 193.196 65.9342 193.435 65.7465C193.675 65.5564 193.856 65.3014 193.976 64.9813C194.099 64.6589 194.16 64.3004 194.16 63.9058C194.16 63.5159 194.1 63.1646 193.98 62.8518C193.862 62.5366 193.682 62.2876 193.442 62.1047C193.204 61.9194 192.904 61.8268 192.543 61.8268C192.197 61.8268 191.905 61.9146 191.67 62.0902C191.434 62.2635 191.256 62.5065 191.135 62.8193C191.015 63.1297 190.955 63.4919 190.955 63.9058ZM198.636 66.7932C198.101 66.7932 197.641 66.6753 197.253 66.4395C196.868 66.2013 196.571 65.8692 196.362 65.4433C196.155 65.015 196.051 64.5169 196.051 63.9491C196.051 63.3812 196.155 62.8807 196.362 62.4476C196.571 62.012 196.862 61.6728 197.235 61.4297C197.611 61.1843 198.049 61.0616 198.549 61.0616C198.838 61.0616 199.123 61.1097 199.404 61.206C199.686 61.3022 199.942 61.4586 200.173 61.6752C200.404 61.8893 200.588 62.1733 200.725 62.527C200.863 62.8807 200.931 63.3162 200.931 63.8336V64.1945H196.658V63.4582H200.065C200.065 63.1454 200.002 62.8663 199.877 62.6208C199.755 62.3754 199.579 62.1817 199.35 62.0397C199.124 61.8977 198.857 61.8268 198.549 61.8268C198.21 61.8268 197.916 61.911 197.668 62.0794C197.423 62.2455 197.234 62.462 197.102 62.7291C196.969 62.9962 196.903 63.2825 196.903 63.5881V64.079C196.903 64.4977 196.975 64.8526 197.12 65.1438C197.267 65.4325 197.47 65.6527 197.73 65.8043C197.99 65.9535 198.292 66.0281 198.636 66.0281C198.859 66.0281 199.062 65.9968 199.242 65.9342C199.425 65.8692 199.583 65.773 199.715 65.6455C199.847 65.5155 199.949 65.3543 200.022 65.1618L200.845 65.3928C200.758 65.6719 200.612 65.9174 200.408 66.1291C200.203 66.3385 199.951 66.5021 199.65 66.62C199.349 66.7355 199.011 66.7932 198.636 66.7932ZM202.227 66.6777V61.1338H203.05V61.9711H203.108C203.209 61.6968 203.392 61.4743 203.656 61.3034C203.921 61.1326 204.219 61.0471 204.551 61.0471C204.614 61.0471 204.692 61.0483 204.786 61.0508C204.88 61.0532 204.951 61.0568 204.999 61.0616V61.9278C204.97 61.9206 204.904 61.9098 204.8 61.8953C204.699 61.8785 204.592 61.8701 204.479 61.8701C204.21 61.8701 203.969 61.9266 203.757 62.0397C203.548 62.1504 203.382 62.3044 203.259 62.5017C203.139 62.6966 203.079 62.9192 203.079 63.1694V66.6777H202.227ZM205.144 60.0798V59.2858H210.688V60.0798H208.364V66.6777H207.469V60.0798H205.144ZM213.475 66.7932C212.94 66.7932 212.48 66.6753 212.092 66.4395C211.707 66.2013 211.41 65.8692 211.201 65.4433C210.994 65.015 210.89 64.5169 210.89 63.9491C210.89 63.3812 210.994 62.8807 211.201 62.4476C211.41 62.012 211.701 61.6728 212.074 61.4297C212.45 61.1843 212.887 61.0616 213.388 61.0616C213.677 61.0616 213.962 61.1097 214.243 61.206C214.525 61.3022 214.781 61.4586 215.012 61.6752C215.243 61.8893 215.427 62.1733 215.564 62.527C215.702 62.8807 215.77 63.3162 215.77 63.8336V64.1945H211.497V63.4582H214.904C214.904 63.1454 214.841 62.8663 214.716 62.6208C214.594 62.3754 214.418 62.1817 214.189 62.0397C213.963 61.8977 213.696 61.8268 213.388 61.8268C213.049 61.8268 212.755 61.911 212.507 62.0794C212.262 62.2455 212.073 62.462 211.941 62.7291C211.808 62.9962 211.742 63.2825 211.742 63.5881V64.079C211.742 64.4977 211.814 64.8526 211.959 65.1438C212.105 65.4325 212.309 65.6527 212.569 65.8043C212.829 65.9535 213.131 66.0281 213.475 66.0281C213.698 66.0281 213.901 65.9968 214.081 65.9342C214.264 65.8692 214.421 65.773 214.554 65.6455C214.686 65.5155 214.788 65.3543 214.861 65.1618L215.684 65.3928C215.597 65.6719 215.451 65.9174 215.247 66.1291C215.042 66.3385 214.79 66.5021 214.489 66.62C214.188 66.7355 213.85 66.7932 213.475 66.7932ZM218.697 66.8077C218.346 66.8077 218.027 66.7415 217.741 66.6092C217.455 66.4744 217.227 66.2807 217.059 66.0281C216.89 65.773 216.806 65.465 216.806 65.1041C216.806 64.7864 216.869 64.529 216.994 64.3317C217.119 64.1319 217.286 63.9755 217.495 63.8624C217.705 63.7493 217.936 63.6651 218.188 63.6098C218.443 63.552 218.7 63.5063 218.957 63.4726C219.294 63.4293 219.567 63.3968 219.777 63.3752C219.988 63.3511 220.142 63.3114 220.239 63.2561C220.337 63.2007 220.387 63.1045 220.387 62.9673V62.9384C220.387 62.5823 220.289 62.3056 220.094 62.1083C219.902 61.911 219.609 61.8123 219.217 61.8123C218.81 61.8123 218.492 61.9014 218.261 62.0794C218.03 62.2575 217.867 62.4476 217.773 62.6497L216.965 62.3609C217.109 62.0241 217.302 61.7618 217.542 61.5741C217.785 61.384 218.05 61.2517 218.336 61.1771C218.625 61.1001 218.909 61.0616 219.188 61.0616C219.366 61.0616 219.571 61.0832 219.802 61.1266C220.035 61.1675 220.26 61.2529 220.477 61.3828C220.696 61.5128 220.877 61.7089 221.022 61.9711C221.166 62.2334 221.238 62.5847 221.238 63.0251V66.6777H220.387V65.927H220.343C220.285 66.0473 220.189 66.176 220.054 66.3132C219.92 66.4503 219.74 66.567 219.517 66.6633C219.293 66.7595 219.02 66.8077 218.697 66.8077ZM218.827 66.0425C219.164 66.0425 219.448 65.9763 219.679 65.844C219.912 65.7116 220.088 65.5408 220.206 65.3314C220.326 65.1221 220.387 64.9019 220.387 64.6709V63.8913C220.35 63.9346 220.271 63.9743 220.148 64.0104C220.028 64.0441 219.888 64.0742 219.73 64.1007C219.573 64.1247 219.42 64.1464 219.271 64.1656C219.124 64.1825 219.005 64.1969 218.914 64.2089C218.693 64.2378 218.486 64.2847 218.293 64.3497C218.103 64.4123 217.949 64.5073 217.831 64.6348C217.716 64.76 217.658 64.9308 217.658 65.1474C217.658 65.4433 217.767 65.6671 217.986 65.8187C218.208 65.9679 218.488 66.0425 218.827 66.0425ZM222.793 66.6777V61.1338H223.616V62H223.688C223.804 61.704 223.99 61.4743 224.248 61.3106C224.505 61.1446 224.814 61.0616 225.175 61.0616C225.541 61.0616 225.845 61.1446 226.088 61.3106C226.334 61.4743 226.525 61.704 226.662 62H226.72C226.862 61.7137 227.075 61.4863 227.359 61.3178C227.643 61.147 227.983 61.0616 228.38 61.0616C228.876 61.0616 229.281 61.2168 229.597 61.5272C229.912 61.8352 230.07 62.3152 230.07 62.9673V66.6777H229.218V62.9673C229.218 62.5583 229.106 62.2659 228.882 62.0902C228.658 61.9146 228.395 61.8268 228.092 61.8268C227.702 61.8268 227.4 61.9447 227.186 62.1805C226.971 62.4139 226.864 62.7099 226.864 63.0684V66.6777H225.998V62.8807C225.998 62.5655 225.896 62.3116 225.691 62.1191C225.487 61.9242 225.223 61.8268 224.901 61.8268C224.68 61.8268 224.473 61.8857 224.28 62.0036C224.09 62.1215 223.936 62.2852 223.818 62.4945C223.703 62.7014 223.645 62.9409 223.645 63.2128V66.6777H222.793Z" fill="black"/>
<path d="M97.9687 183.562H95.6876V176.171H98.0698C98.7868 176.171 99.4004 176.319 99.9105 176.614C100.421 176.908 100.812 177.33 101.084 177.881C101.355 178.43 101.491 179.087 101.491 179.852C101.491 180.622 101.354 181.285 101.08 181.841C100.806 182.394 100.406 182.82 99.8817 183.119C99.3571 183.415 98.7195 183.562 97.9687 183.562ZM96.5827 182.768H97.911C98.5221 182.768 99.0287 182.651 99.4305 182.415C99.8323 182.179 100.132 181.843 100.329 181.408C100.527 180.972 100.625 180.454 100.625 179.852C100.625 179.255 100.528 178.742 100.333 178.311C100.138 177.878 99.8468 177.546 99.4594 177.315C99.072 177.081 98.5895 176.965 98.012 176.965H96.5827V182.768ZM102.877 183.562V178.019H103.7V178.856H103.758C103.859 178.582 104.042 178.359 104.307 178.188C104.571 178.017 104.87 177.932 105.202 177.932C105.264 177.932 105.343 177.933 105.436 177.936C105.53 177.938 105.601 177.942 105.649 177.946V178.813C105.621 178.805 105.554 178.795 105.451 178.78C105.35 178.763 105.243 178.755 105.13 178.755C104.86 178.755 104.62 178.811 104.408 178.924C104.198 179.035 104.032 179.189 103.91 179.386C103.789 179.581 103.729 179.804 103.729 180.054V183.562H102.877ZM106.659 183.562V178.019H107.511V183.562H106.659ZM107.092 177.095C106.926 177.095 106.783 177.038 106.663 176.925C106.545 176.812 106.486 176.676 106.486 176.517C106.486 176.358 106.545 176.222 106.663 176.109C106.783 175.996 106.926 175.94 107.092 175.94C107.258 175.94 107.4 175.996 107.518 176.109C107.638 176.222 107.699 176.358 107.699 176.517C107.699 176.676 107.638 176.812 107.518 176.925C107.4 177.038 107.258 177.095 107.092 177.095ZM111.54 178.019V178.74H108.551V178.019H111.54ZM109.446 183.562V177.253C109.446 176.936 109.521 176.671 109.67 176.459C109.819 176.248 110.013 176.089 110.251 175.983C110.49 175.877 110.741 175.824 111.006 175.824C111.215 175.824 111.386 175.841 111.518 175.875C111.651 175.908 111.749 175.94 111.814 175.968L111.569 176.705C111.525 176.69 111.465 176.672 111.388 176.651C111.314 176.629 111.215 176.618 111.092 176.618C110.811 176.618 110.607 176.689 110.482 176.831C110.36 176.973 110.298 177.181 110.298 177.455V183.562H109.446ZM115.145 178.019V178.74H112.272V178.019H115.145ZM113.109 176.69H113.961V181.974C113.961 182.215 113.996 182.395 114.066 182.516C114.138 182.634 114.229 182.713 114.34 182.754C114.453 182.793 114.572 182.812 114.697 182.812C114.791 182.812 114.868 182.807 114.928 182.797C114.988 182.785 115.036 182.776 115.073 182.768L115.246 183.534C115.188 183.555 115.107 183.577 115.004 183.599C114.9 183.623 114.769 183.635 114.611 183.635C114.37 183.635 114.134 183.583 113.903 183.479C113.675 183.376 113.484 183.218 113.333 183.007C113.184 182.795 113.109 182.528 113.109 182.205V176.69Z" fill="black"/>
<path d="M97.7377 207.497V198.257H98.3296V207.497H97.7377ZM99.7301 201.029C99.6868 200.664 99.5111 200.38 99.2031 200.177C98.8951 199.975 98.5173 199.874 98.0698 199.874C97.7425 199.874 97.4562 199.927 97.2107 200.033C96.9677 200.139 96.7776 200.285 96.6405 200.47C96.5057 200.655 96.4383 200.866 96.4383 201.101C96.4383 201.299 96.4853 201.468 96.5791 201.61C96.6754 201.75 96.7981 201.867 96.9473 201.96C97.0965 202.052 97.2529 202.128 97.4165 202.188C97.5801 202.246 97.7305 202.293 97.8676 202.329L98.6184 202.531C98.8109 202.581 99.025 202.651 99.2609 202.74C99.4991 202.829 99.7265 202.951 99.943 203.105C100.162 203.256 100.342 203.451 100.484 203.689C100.626 203.928 100.697 204.22 100.697 204.566C100.697 204.966 100.593 205.327 100.383 205.649C100.176 205.972 99.8732 206.228 99.4738 206.418C99.0768 206.608 98.5943 206.703 98.0265 206.703C97.4971 206.703 97.0387 206.618 96.6513 206.447C96.2663 206.276 95.9631 206.038 95.7417 205.732C95.5228 205.427 95.3989 205.072 95.37 204.668H96.294C96.318 204.947 96.4119 205.178 96.5755 205.36C96.7415 205.541 96.9509 205.676 97.2035 205.765C97.4586 205.851 97.7329 205.895 98.0265 205.895C98.3681 205.895 98.6749 205.839 98.9468 205.729C99.2187 205.616 99.4341 205.459 99.5929 205.259C99.7517 205.057 99.8311 204.822 99.8311 204.552C99.8311 204.307 99.7626 204.107 99.6254 203.953C99.4882 203.799 99.3078 203.674 99.084 203.577C98.8602 203.481 98.6184 203.397 98.3585 203.325L97.449 203.065C96.8715 202.899 96.4143 202.662 96.0774 202.354C95.7405 202.046 95.5721 201.643 95.5721 201.145C95.5721 200.731 95.684 200.37 95.9078 200.062C96.134 199.752 96.4371 199.511 96.8173 199.34C97.1999 199.167 97.627 199.08 98.0986 199.08C98.5751 199.08 98.9986 199.166 99.3691 199.336C99.7397 199.505 100.033 199.736 100.25 200.029C100.469 200.323 100.584 200.656 100.596 201.029H99.7301ZM102.039 206.573V205.924L104.479 203.253C104.765 202.94 105.001 202.668 105.187 202.437C105.372 202.204 105.509 201.985 105.598 201.78C105.689 201.573 105.735 201.357 105.735 201.13C105.735 200.87 105.673 200.645 105.547 200.455C105.425 200.265 105.256 200.119 105.042 200.015C104.828 199.912 104.587 199.86 104.32 199.86C104.036 199.86 103.788 199.919 103.577 200.037C103.367 200.152 103.205 200.315 103.089 200.524C102.976 200.733 102.92 200.979 102.92 201.26H102.068C102.068 200.827 102.168 200.447 102.368 200.12C102.567 199.792 102.839 199.537 103.183 199.355C103.53 199.172 103.918 199.08 104.349 199.08C104.782 199.08 105.166 199.172 105.501 199.355C105.835 199.537 106.097 199.784 106.287 200.094C106.477 200.405 106.573 200.75 106.573 201.13C106.573 201.402 106.523 201.668 106.425 201.928C106.328 202.185 106.16 202.473 105.919 202.791C105.681 203.106 105.35 203.491 104.927 203.946L103.266 205.721V205.779H106.702V206.573H102.039ZM110.604 206.674C110.06 206.674 109.597 206.526 109.215 206.23C108.832 205.932 108.54 205.5 108.337 204.935C108.135 204.367 108.034 203.681 108.034 202.877C108.034 202.078 108.135 201.396 108.337 200.831C108.542 200.263 108.836 199.83 109.218 199.531C109.603 199.231 110.065 199.08 110.604 199.08C111.143 199.08 111.604 199.231 111.987 199.531C112.372 199.83 112.665 200.263 112.867 200.831C113.072 201.396 113.174 202.078 113.174 202.877C113.174 203.681 113.073 204.367 112.871 204.935C112.669 205.5 112.376 205.932 111.994 206.23C111.611 206.526 111.148 206.674 110.604 206.674ZM110.604 205.88C111.143 205.88 111.562 205.62 111.86 205.101C112.159 204.581 112.308 203.84 112.308 202.877C112.308 202.237 112.239 201.692 112.102 201.242C111.967 200.792 111.772 200.449 111.517 200.214C111.265 199.978 110.96 199.86 110.604 199.86C110.07 199.86 109.652 200.123 109.352 200.65C109.051 201.175 108.901 201.917 108.901 202.877C108.901 203.517 108.968 204.061 109.103 204.509C109.237 204.956 109.431 205.297 109.684 205.53C109.939 205.764 110.246 205.88 110.604 205.88ZM116.957 206.674C116.413 206.674 115.95 206.526 115.567 206.23C115.184 205.932 114.892 205.5 114.69 204.935C114.488 204.367 114.387 203.681 114.387 202.877C114.387 202.078 114.488 201.396 114.69 200.831C114.894 200.263 115.188 199.83 115.571 199.531C115.956 199.231 116.418 199.08 116.957 199.08C117.496 199.08 117.956 199.231 118.339 199.531C118.724 199.83 119.018 200.263 119.22 200.831C119.424 201.396 119.526 202.078 119.526 202.877C119.526 203.681 119.425 204.367 119.223 204.935C119.021 205.5 118.729 205.932 118.346 206.23C117.964 206.526 117.5 206.674 116.957 206.674ZM116.957 205.88C117.496 205.88 117.914 205.62 118.213 205.101C118.511 204.581 118.66 203.84 118.66 202.877C118.66 202.237 118.592 201.692 118.454 201.242C118.32 200.792 118.125 200.449 117.87 200.214C117.617 199.978 117.313 199.86 116.957 199.86C116.422 199.86 116.005 200.123 115.704 200.65C115.403 201.175 115.253 201.917 115.253 202.877C115.253 203.517 115.32 204.061 115.455 204.509C115.59 204.956 115.784 205.297 116.036 205.53C116.291 205.764 116.598 205.88 116.957 205.88ZM121.925 205.563L121.867 205.952C121.826 206.227 121.764 206.52 121.679 206.833C121.598 207.146 121.512 207.441 121.423 207.717C121.334 207.994 121.261 208.214 121.203 208.378H120.553C120.585 208.224 120.626 208.021 120.676 207.768C120.727 207.515 120.777 207.233 120.828 206.92C120.881 206.609 120.924 206.292 120.958 205.967L121.001 205.563H121.925ZM125.642 206.674C125.098 206.674 124.635 206.526 124.252 206.23C123.869 205.932 123.577 205.5 123.375 204.935C123.173 204.367 123.072 203.681 123.072 202.877C123.072 202.078 123.173 201.396 123.375 200.831C123.579 200.263 123.873 199.83 124.256 199.531C124.641 199.231 125.103 199.08 125.642 199.08C126.181 199.08 126.641 199.231 127.024 199.531C127.409 199.83 127.703 200.263 127.905 200.831C128.109 201.396 128.211 202.078 128.211 202.877C128.211 203.681 128.11 204.367 127.908 204.935C127.706 205.5 127.414 205.932 127.031 206.23C126.649 206.526 126.185 206.674 125.642 206.674ZM125.642 205.88C126.181 205.88 126.599 205.62 126.898 205.101C127.196 204.581 127.345 203.84 127.345 202.877C127.345 202.237 127.277 201.692 127.139 201.242C127.005 200.792 126.81 200.449 126.555 200.214C126.302 199.978 125.998 199.86 125.642 199.86C125.107 199.86 124.69 200.123 124.389 200.65C124.088 201.175 123.938 201.917 123.938 202.877C123.938 203.517 124.005 204.061 124.14 204.509C124.275 204.956 124.469 205.297 124.721 205.53C124.976 205.764 125.283 205.88 125.642 205.88ZM131.994 206.674C131.45 206.674 130.987 206.526 130.604 206.23C130.222 205.932 129.93 205.5 129.727 204.935C129.525 204.367 129.424 203.681 129.424 202.877C129.424 202.078 129.525 201.396 129.727 200.831C129.932 200.263 130.225 199.83 130.608 199.531C130.993 199.231 131.455 199.08 131.994 199.08C132.533 199.08 132.994 199.231 133.376 199.531C133.761 199.83 134.055 200.263 134.257 200.831C134.462 201.396 134.564 202.078 134.564 202.877C134.564 203.681 134.463 204.367 134.261 204.935C134.059 205.5 133.766 205.932 133.384 206.23C133.001 206.526 132.538 206.674 131.994 206.674ZM131.994 205.88C132.533 205.88 132.952 205.62 133.25 205.101C133.548 204.581 133.698 203.84 133.698 202.877C133.698 202.237 133.629 201.692 133.492 201.242C133.357 200.792 133.162 200.449 132.907 200.214C132.655 199.978 132.35 199.86 131.994 199.86C131.46 199.86 131.042 200.123 130.742 200.65C130.441 201.175 130.29 201.917 130.29 202.877C130.29 203.517 130.358 204.061 130.493 204.509C130.627 204.956 130.821 205.297 131.074 205.53C131.329 205.764 131.636 205.88 131.994 205.88ZM138.347 206.674C137.803 206.674 137.34 206.526 136.957 206.23C136.574 205.932 136.282 205.5 136.08 204.935C135.878 204.367 135.777 203.681 135.777 202.877C135.777 202.078 135.878 201.396 136.08 200.831C136.284 200.263 136.578 199.83 136.961 199.531C137.346 199.231 137.808 199.08 138.347 199.08C138.886 199.08 139.346 199.231 139.729 199.531C140.114 199.83 140.407 200.263 140.61 200.831C140.814 201.396 140.916 202.078 140.916 202.877C140.916 203.681 140.815 204.367 140.613 204.935C140.411 205.5 140.119 205.932 139.736 206.23C139.354 206.526 138.89 206.674 138.347 206.674ZM138.347 205.88C138.886 205.88 139.304 205.62 139.603 205.101C139.901 204.581 140.05 203.84 140.05 202.877C140.05 202.237 139.982 201.692 139.844 201.242C139.71 200.792 139.515 200.449 139.26 200.214C139.007 199.978 138.703 199.86 138.347 199.86C137.812 199.86 137.395 200.123 137.094 200.65C136.793 201.175 136.643 201.917 136.643 202.877C136.643 203.517 136.71 204.061 136.845 204.509C136.98 204.956 137.173 205.297 137.426 205.53C137.681 205.764 137.988 205.88 138.347 205.88Z" fill="black"/>
<path d="M176.806 165.314C176.763 164.949 176.587 164.665 176.279 164.463C175.971 164.261 175.594 164.159 175.146 164.159C174.819 164.159 174.532 164.212 174.287 164.318C174.044 164.424 173.854 164.57 173.717 164.755C173.582 164.94 173.515 165.151 173.515 165.387C173.515 165.584 173.561 165.754 173.655 165.896C173.752 166.035 173.874 166.152 174.023 166.246C174.173 166.337 174.329 166.413 174.493 166.473C174.656 166.531 174.807 166.578 174.944 166.614L175.695 166.816C175.887 166.866 176.101 166.936 176.337 167.025C176.575 167.114 176.803 167.236 177.019 167.39C177.238 167.541 177.419 167.736 177.561 167.975C177.703 168.213 177.774 168.505 177.774 168.852C177.774 169.251 177.669 169.612 177.46 169.934C177.253 170.257 176.949 170.513 176.55 170.703C176.153 170.893 175.671 170.988 175.103 170.988C174.573 170.988 174.115 170.903 173.727 170.732C173.342 170.561 173.039 170.323 172.818 170.017C172.599 169.712 172.475 169.357 172.446 168.953H173.37C173.394 169.232 173.488 169.463 173.652 169.646C173.818 169.826 174.027 169.961 174.28 170.05C174.535 170.137 174.809 170.18 175.103 170.18C175.444 170.18 175.751 170.124 176.023 170.014C176.295 169.901 176.51 169.744 176.669 169.545C176.828 169.342 176.907 169.107 176.907 168.837C176.907 168.592 176.839 168.392 176.702 168.238C176.564 168.084 176.384 167.959 176.16 167.863C175.936 167.766 175.695 167.682 175.435 167.61L174.525 167.35C173.948 167.184 173.49 166.947 173.154 166.639C172.817 166.331 172.648 165.928 172.648 165.43C172.648 165.016 172.76 164.655 172.984 164.347C173.21 164.037 173.513 163.796 173.893 163.625C174.276 163.452 174.703 163.365 175.175 163.365C175.651 163.365 176.075 163.451 176.445 163.622C176.816 163.79 177.109 164.021 177.326 164.315C177.545 164.608 177.66 164.941 177.672 165.314H176.806ZM181.382 170.974C180.882 170.974 180.442 170.855 180.065 170.617C179.689 170.378 179.396 170.045 179.184 169.617C178.975 169.188 178.87 168.688 178.87 168.115C178.87 167.538 178.975 167.034 179.184 166.603C179.396 166.172 179.689 165.838 180.065 165.6C180.442 165.361 180.882 165.242 181.382 165.242C181.882 165.242 182.32 165.361 182.696 165.6C183.074 165.838 183.367 166.172 183.576 166.603C183.788 167.034 183.894 167.538 183.894 168.115C183.894 168.688 183.788 169.188 183.576 169.617C183.367 170.045 183.074 170.378 182.696 170.617C182.32 170.855 181.882 170.974 181.382 170.974ZM181.382 170.209C181.762 170.209 182.075 170.111 182.32 169.916C182.566 169.721 182.748 169.465 182.865 169.148C182.983 168.83 183.042 168.486 183.042 168.115C183.042 167.745 182.983 167.399 182.865 167.079C182.748 166.759 182.566 166.501 182.32 166.303C182.075 166.106 181.762 166.007 181.382 166.007C181.002 166.007 180.689 166.106 180.444 166.303C180.198 166.501 180.016 166.759 179.899 167.079C179.781 167.399 179.722 167.745 179.722 168.115C179.722 168.486 179.781 168.83 179.899 169.148C180.016 169.465 180.198 169.721 180.444 169.916C180.689 170.111 181.002 170.209 181.382 170.209ZM186.046 163.466V170.858H185.194V163.466H186.046ZM190.075 165.314V166.036H187.087V165.314H190.075ZM187.982 170.858V164.549C187.982 164.232 188.056 163.967 188.205 163.755C188.355 163.543 188.548 163.385 188.787 163.279C189.025 163.173 189.276 163.12 189.541 163.12C189.75 163.12 189.921 163.137 190.053 163.17C190.186 163.204 190.284 163.235 190.349 163.264L190.104 164.001C190.061 163.986 190.001 163.968 189.924 163.946C189.849 163.925 189.75 163.914 189.628 163.914C189.346 163.914 189.143 163.985 189.018 164.127C188.895 164.269 188.834 164.477 188.834 164.751V170.858H187.982ZM192.121 163.466V170.858H191.269V163.466H192.121ZM195.312 170.988C194.961 170.988 194.642 170.922 194.356 170.79C194.069 170.655 193.842 170.461 193.674 170.209C193.505 169.954 193.421 169.646 193.421 169.285C193.421 168.967 193.484 168.71 193.609 168.512C193.734 168.313 193.901 168.156 194.11 168.043C194.32 167.93 194.551 167.846 194.803 167.79C195.058 167.733 195.315 167.687 195.572 167.653C195.909 167.61 196.182 167.577 196.391 167.556C196.603 167.532 196.757 167.492 196.853 167.437C196.952 167.381 197.001 167.285 197.001 167.148V167.119C197.001 166.763 196.904 166.486 196.709 166.289C196.517 166.092 196.224 165.993 195.832 165.993C195.425 165.993 195.107 166.082 194.876 166.26C194.645 166.438 194.482 166.628 194.388 166.83L193.58 166.542C193.724 166.205 193.917 165.942 194.157 165.755C194.4 165.565 194.665 165.432 194.951 165.358C195.24 165.281 195.524 165.242 195.803 165.242C195.981 165.242 196.186 165.264 196.417 165.307C196.65 165.348 196.875 165.434 197.092 165.563C197.311 165.693 197.492 165.89 197.637 166.152C197.781 166.414 197.853 166.765 197.853 167.206V170.858H197.001V170.108H196.958C196.9 170.228 196.804 170.357 196.669 170.494C196.535 170.631 196.355 170.748 196.132 170.844C195.908 170.94 195.635 170.988 195.312 170.988ZM195.442 170.223C195.779 170.223 196.063 170.157 196.294 170.025C196.527 169.892 196.703 169.721 196.821 169.512C196.941 169.303 197.001 169.083 197.001 168.852V168.072C196.965 168.115 196.886 168.155 196.763 168.191C196.643 168.225 196.503 168.255 196.345 168.281C196.188 168.305 196.035 168.327 195.886 168.346C195.739 168.363 195.62 168.378 195.529 168.39C195.307 168.418 195.101 168.465 194.908 168.53C194.718 168.593 194.564 168.688 194.446 168.816C194.331 168.941 194.273 169.111 194.273 169.328C194.273 169.624 194.382 169.848 194.601 169.999C194.823 170.149 195.103 170.223 195.442 170.223ZM199.408 170.858V165.314H200.231V166.152H200.289C200.39 165.877 200.573 165.655 200.837 165.484C201.102 165.313 201.4 165.228 201.732 165.228C201.795 165.228 201.873 165.229 201.967 165.231C202.061 165.234 202.132 165.237 202.18 165.242V166.108C202.151 166.101 202.085 166.09 201.981 166.076C201.88 166.059 201.773 166.051 201.66 166.051C201.391 166.051 201.15 166.107 200.938 166.22C200.729 166.331 200.563 166.485 200.44 166.682C200.32 166.877 200.26 167.1 200.26 167.35V170.858H199.408ZM205.345 170.974C204.811 170.974 204.35 170.856 203.963 170.62C203.578 170.382 203.281 170.05 203.071 169.624C202.865 169.196 202.761 168.698 202.761 168.13C202.761 167.562 202.865 167.061 203.071 166.628C203.281 166.193 203.572 165.853 203.945 165.61C204.32 165.365 204.758 165.242 205.259 165.242C205.548 165.242 205.833 165.29 206.114 165.387C206.396 165.483 206.652 165.639 206.883 165.856C207.114 166.07 207.298 166.354 207.435 166.708C207.572 167.061 207.641 167.497 207.641 168.014V168.375H203.367V167.639H206.775C206.775 167.326 206.712 167.047 206.587 166.801C206.464 166.556 206.289 166.362 206.06 166.22C205.834 166.078 205.567 166.007 205.259 166.007C204.919 166.007 204.626 166.092 204.378 166.26C204.133 166.426 203.944 166.643 203.811 166.91C203.679 167.177 203.613 167.463 203.613 167.769V168.26C203.613 168.678 203.685 169.033 203.829 169.324C203.976 169.613 204.18 169.833 204.439 169.985C204.699 170.134 205.001 170.209 205.345 170.209C205.569 170.209 205.771 170.177 205.952 170.115C206.135 170.05 206.292 169.954 206.425 169.826C206.557 169.696 206.659 169.535 206.731 169.342L207.554 169.573C207.468 169.853 207.322 170.098 207.118 170.31C206.913 170.519 206.66 170.683 206.36 170.801C206.059 170.916 205.721 170.974 205.345 170.974Z" fill="black"/>
<path d="M174.814 187.875V178.635H175.406V187.875H174.814ZM176.806 181.407C176.763 181.041 176.587 180.758 176.279 180.555C175.971 180.353 175.594 180.252 175.146 180.252C174.819 180.252 174.532 180.305 174.287 180.411C174.044 180.517 173.854 180.662 173.717 180.848C173.582 181.033 173.515 181.244 173.515 181.479C173.515 181.677 173.561 181.846 173.655 181.988C173.752 182.128 173.874 182.245 174.023 182.338C174.173 182.43 174.329 182.506 174.493 182.566C174.656 182.624 174.807 182.67 174.944 182.707L175.695 182.909C175.887 182.959 176.101 183.029 176.337 183.118C176.575 183.207 176.803 183.329 177.019 183.483C177.238 183.634 177.419 183.829 177.561 184.067C177.703 184.306 177.774 184.598 177.774 184.944C177.774 185.344 177.669 185.705 177.46 186.027C177.253 186.35 176.949 186.606 176.55 186.796C176.153 186.986 175.671 187.081 175.103 187.081C174.573 187.081 174.115 186.996 173.727 186.825C173.342 186.654 173.039 186.416 172.818 186.11C172.599 185.805 172.475 185.45 172.446 185.045H173.37C173.394 185.325 173.488 185.556 173.652 185.738C173.818 185.919 174.027 186.054 174.28 186.143C174.535 186.229 174.809 186.273 175.103 186.273C175.444 186.273 175.751 186.217 176.023 186.107C176.295 185.993 176.51 185.837 176.669 185.637C176.828 185.435 176.907 185.199 176.907 184.93C176.907 184.684 176.839 184.485 176.702 184.331C176.564 184.177 176.384 184.052 176.16 183.955C175.936 183.859 175.695 183.775 175.435 183.703L174.525 183.443C173.948 183.277 173.49 183.04 173.154 182.732C172.817 182.424 172.648 182.021 172.648 181.523C172.648 181.109 172.76 180.748 172.984 180.44C173.21 180.129 173.513 179.889 173.893 179.718C174.276 179.545 174.703 179.458 175.175 179.458C175.651 179.458 176.075 179.544 176.445 179.714C176.816 179.883 177.109 180.114 177.326 180.407C177.545 180.701 177.66 181.034 177.672 181.407H176.806ZM179.115 186.951V186.301L181.555 183.631C181.842 183.318 182.077 183.046 182.263 182.815C182.448 182.581 182.585 182.362 182.674 182.158C182.766 181.951 182.811 181.734 182.811 181.508C182.811 181.248 182.749 181.023 182.624 180.833C182.501 180.643 182.332 180.496 182.118 180.393C181.904 180.29 181.664 180.238 181.396 180.238C181.113 180.238 180.865 180.297 180.653 180.415C180.444 180.53 180.281 180.693 180.166 180.902C180.053 181.111 179.996 181.357 179.996 181.638H179.144C179.144 181.205 179.244 180.825 179.444 180.498C179.643 180.17 179.915 179.915 180.259 179.732C180.606 179.55 180.995 179.458 181.425 179.458C181.858 179.458 182.242 179.55 182.577 179.732C182.911 179.915 183.173 180.162 183.364 180.472C183.554 180.783 183.649 181.128 183.649 181.508C183.649 181.78 183.599 182.046 183.501 182.306C183.404 182.563 183.236 182.851 182.995 183.169C182.757 183.484 182.426 183.869 182.003 184.324L180.343 186.099V186.157H183.779V186.951H179.115ZM187.68 187.052C187.137 187.052 186.673 186.904 186.291 186.608C185.908 186.31 185.616 185.878 185.414 185.313C185.212 184.745 185.11 184.059 185.11 183.255C185.11 182.456 185.212 181.774 185.414 181.209C185.618 180.641 185.912 180.208 186.294 179.909C186.679 179.609 187.141 179.458 187.68 179.458C188.219 179.458 188.68 179.609 189.063 179.909C189.448 180.208 189.741 180.641 189.943 181.209C190.148 181.774 190.25 182.456 190.25 183.255C190.25 184.059 190.149 184.745 189.947 185.313C189.745 185.878 189.453 186.31 189.07 186.608C188.687 186.904 188.224 187.052 187.68 187.052ZM187.68 186.258C188.219 186.258 188.638 185.998 188.936 185.479C189.235 184.959 189.384 184.218 189.384 183.255C189.384 182.615 189.315 182.07 189.178 181.62C189.043 181.17 188.849 180.827 188.593 180.591C188.341 180.356 188.036 180.238 187.68 180.238C187.146 180.238 186.729 180.501 186.428 181.028C186.127 181.553 185.977 182.295 185.977 183.255C185.977 183.895 186.044 184.439 186.179 184.887C186.314 185.334 186.507 185.675 186.76 185.908C187.015 186.141 187.322 186.258 187.68 186.258ZM194.033 187.052C193.489 187.052 193.026 186.904 192.643 186.608C192.261 186.31 191.968 185.878 191.766 185.313C191.564 184.745 191.463 184.059 191.463 183.255C191.463 182.456 191.564 181.774 191.766 181.209C191.971 180.641 192.264 180.208 192.647 179.909C193.032 179.609 193.494 179.458 194.033 179.458C194.572 179.458 195.033 179.609 195.415 179.909C195.8 180.208 196.094 180.641 196.296 181.209C196.5 181.774 196.603 182.456 196.603 183.255C196.603 184.059 196.502 184.745 196.299 185.313C196.097 185.878 195.805 186.31 195.422 186.608C195.04 186.904 194.577 187.052 194.033 187.052ZM194.033 186.258C194.572 186.258 194.99 185.998 195.289 185.479C195.587 184.959 195.736 184.218 195.736 183.255C195.736 182.615 195.668 182.07 195.531 181.62C195.396 181.17 195.201 180.827 194.946 180.591C194.693 180.356 194.389 180.238 194.033 180.238C193.499 180.238 193.081 180.501 192.78 181.028C192.48 181.553 192.329 182.295 192.329 183.255C192.329 183.895 192.397 184.439 192.531 184.887C192.666 185.334 192.86 185.675 193.112 185.908C193.367 186.141 193.674 186.258 194.033 186.258ZM199.001 185.941L198.943 186.33C198.902 186.605 198.84 186.898 198.756 187.211C198.674 187.524 198.588 187.819 198.499 188.095C198.41 188.372 198.337 188.592 198.279 188.756H197.629C197.661 188.602 197.702 188.399 197.752 188.146C197.803 187.893 197.853 187.61 197.904 187.298C197.957 186.987 198 186.67 198.034 186.345L198.077 185.941H199.001ZM202.718 187.052C202.174 187.052 201.711 186.904 201.328 186.608C200.946 186.31 200.653 185.878 200.451 185.313C200.249 184.745 200.148 184.059 200.148 183.255C200.148 182.456 200.249 181.774 200.451 181.209C200.656 180.641 200.949 180.208 201.332 179.909C201.717 179.609 202.179 179.458 202.718 179.458C203.257 179.458 203.718 179.609 204.1 179.909C204.485 180.208 204.779 180.641 204.981 181.209C205.185 181.774 205.288 182.456 205.288 183.255C205.288 184.059 205.187 184.745 204.984 185.313C204.782 185.878 204.49 186.31 204.107 186.608C203.725 186.904 203.262 187.052 202.718 187.052ZM202.718 186.258C203.257 186.258 203.675 185.998 203.974 185.479C204.272 184.959 204.421 184.218 204.421 183.255C204.421 182.615 204.353 182.07 204.216 181.62C204.081 181.17 203.886 180.827 203.631 180.591C203.378 180.356 203.074 180.238 202.718 180.238C202.184 180.238 201.766 180.501 201.465 181.028C201.165 181.553 201.014 182.295 201.014 183.255C201.014 183.895 201.082 184.439 201.216 184.887C201.351 185.334 201.545 185.675 201.797 185.908C202.052 186.141 202.359 186.258 202.718 186.258ZM209.07 187.052C208.526 187.052 208.063 186.904 207.681 186.608C207.298 186.31 207.006 185.878 206.804 185.313C206.601 184.745 206.5 184.059 206.5 183.255C206.5 182.456 206.601 181.774 206.804 181.209C207.008 180.641 207.302 180.208 207.684 179.909C208.069 179.609 208.531 179.458 209.07 179.458C209.609 179.458 210.07 179.609 210.453 179.909C210.838 180.208 211.131 180.641 211.333 181.209C211.538 181.774 211.64 182.456 211.64 183.255C211.64 184.059 211.539 184.745 211.337 185.313C211.135 185.878 210.842 186.31 210.46 186.608C210.077 186.904 209.614 187.052 209.07 187.052ZM209.07 186.258C209.609 186.258 210.028 185.998 210.326 185.479C210.625 184.959 210.774 184.218 210.774 183.255C210.774 182.615 210.705 182.07 210.568 181.62C210.433 181.17 210.238 180.827 209.983 180.591C209.731 180.356 209.426 180.238 209.07 180.238C208.536 180.238 208.119 180.501 207.818 181.028C207.517 181.553 207.367 182.295 207.367 183.255C207.367 183.895 207.434 184.439 207.569 184.887C207.704 185.334 207.897 185.675 208.15 185.908C208.405 186.141 208.712 186.258 209.07 186.258ZM215.423 187.052C214.879 187.052 214.416 186.904 214.033 186.608C213.651 186.31 213.358 185.878 213.156 185.313C212.954 184.745 212.853 184.059 212.853 183.255C212.853 182.456 212.954 181.774 213.156 181.209C213.361 180.641 213.654 180.208 214.037 179.909C214.422 179.609 214.884 179.458 215.423 179.458C215.962 179.458 216.422 179.609 216.805 179.909C217.19 180.208 217.484 180.641 217.686 181.209C217.89 181.774 217.993 182.456 217.993 183.255C217.993 184.059 217.891 184.745 217.689 185.313C217.487 185.878 217.195 186.31 216.812 186.608C216.43 186.904 215.967 187.052 215.423 187.052ZM215.423 186.258C215.962 186.258 216.38 185.998 216.679 185.479C216.977 184.959 217.126 184.218 217.126 183.255C217.126 182.615 217.058 182.07 216.921 181.62C216.786 181.17 216.591 180.827 216.336 180.591C216.083 180.356 215.779 180.238 215.423 180.238C214.889 180.238 214.471 180.501 214.17 181.028C213.869 181.553 213.719 182.295 213.719 183.255C213.719 183.895 213.786 184.439 213.921 184.887C214.056 185.334 214.25 185.675 214.502 185.908C214.757 186.141 215.064 186.258 215.423 186.258Z" fill="black"/>
<path d="M183.284 87.9299V78.6899H183.876V87.9299H183.284ZM185.276 81.4619C185.233 81.0961 185.057 80.8122 184.749 80.6101C184.441 80.408 184.064 80.3069 183.616 80.3069C183.289 80.3069 183.003 80.3598 182.757 80.4657C182.514 80.5716 182.324 80.7172 182.187 80.9024C182.052 81.0877 181.985 81.2983 181.985 81.5341C181.985 81.7314 182.032 81.901 182.125 82.043C182.222 82.1826 182.344 82.2993 182.494 82.3931C182.643 82.4845 182.799 82.5603 182.963 82.6205C183.126 82.6782 183.277 82.7252 183.414 82.7613L184.165 82.9634C184.357 83.0139 184.571 83.0837 184.807 83.1727C185.045 83.2618 185.273 83.3833 185.489 83.5373C185.708 83.6889 185.889 83.8838 186.031 84.122C186.173 84.3602 186.244 84.6526 186.244 84.9991C186.244 85.3985 186.139 85.7594 185.93 86.0819C185.723 86.4043 185.42 86.6606 185.02 86.8507C184.623 87.0407 184.141 87.1358 183.573 87.1358C183.043 87.1358 182.585 87.0504 182.198 86.8795C181.813 86.7087 181.51 86.4705 181.288 86.1649C181.069 85.8593 180.945 85.5044 180.916 85.1001H181.84C181.864 85.3792 181.958 85.6102 182.122 85.7931C182.288 85.9736 182.497 86.1083 182.75 86.1974C183.005 86.284 183.279 86.3273 183.573 86.3273C183.915 86.3273 184.221 86.272 184.493 86.1613C184.765 86.0482 184.98 85.8918 185.139 85.6921C185.298 85.4899 185.378 85.2541 185.378 84.9846C185.378 84.7392 185.309 84.5395 185.172 84.3855C185.035 84.2315 184.854 84.1063 184.63 84.0101C184.407 83.9138 184.165 83.8296 183.905 83.7574L182.995 83.4976C182.418 83.3315 181.961 83.0945 181.624 82.7865C181.287 82.4785 181.118 82.0755 181.118 81.5774C181.118 81.1635 181.23 80.8026 181.454 80.4946C181.68 80.1842 181.984 79.9436 182.364 79.7727C182.746 79.5995 183.173 79.5128 183.645 79.5128C184.121 79.5128 184.545 79.5983 184.916 79.7691C185.286 79.9375 185.58 80.1685 185.796 80.4621C186.015 80.7557 186.131 81.0889 186.143 81.4619H185.276ZM187.586 87.0059V86.3562L190.025 83.6853C190.312 83.3724 190.548 83.1005 190.733 82.8695C190.918 82.6361 191.055 82.4172 191.144 82.2126C191.236 82.0057 191.282 81.7891 191.282 81.563C191.282 81.3031 191.219 81.0781 191.094 80.888C190.971 80.6979 190.803 80.5511 190.589 80.4477C190.374 80.3442 190.134 80.2925 189.867 80.2925C189.583 80.2925 189.335 80.3514 189.123 80.4693C188.914 80.5848 188.751 80.7472 188.636 80.9566C188.523 81.1659 188.466 81.4114 188.466 81.6929H187.614C187.614 81.2598 187.714 80.8796 187.914 80.5523C188.114 80.2251 188.386 79.97 188.73 79.7872C189.076 79.6043 189.465 79.5128 189.896 79.5128C190.329 79.5128 190.712 79.6043 191.047 79.7872C191.381 79.97 191.644 80.2167 191.834 80.5271C192.024 80.8375 192.119 81.1828 192.119 81.563C192.119 81.8349 192.07 82.1008 191.971 82.3606C191.875 82.6181 191.706 82.9056 191.466 83.2233C191.227 83.5385 190.897 83.9235 190.473 84.3783L188.813 86.1541V86.2118H192.249V87.0059H187.586ZM196.151 87.1069C195.607 87.1069 195.144 86.9589 194.761 86.663C194.378 86.3646 194.086 85.9327 193.884 85.3672C193.682 84.7993 193.581 84.1136 193.581 83.3099C193.581 82.511 193.682 81.8288 193.884 81.2634C194.088 80.6955 194.382 80.2624 194.765 79.964C195.15 79.6632 195.612 79.5128 196.151 79.5128C196.69 79.5128 197.15 79.6632 197.533 79.964C197.918 80.2624 198.211 80.6955 198.414 81.2634C198.618 81.8288 198.72 82.511 198.72 83.3099C198.72 84.1136 198.619 84.7993 198.417 85.3672C198.215 85.9327 197.923 86.3646 197.54 86.663C197.158 86.9589 196.694 87.1069 196.151 87.1069ZM196.151 86.3129C196.69 86.3129 197.108 86.053 197.407 85.5332C197.705 85.0135 197.854 84.2724 197.854 83.3099C197.854 82.6698 197.786 82.1248 197.648 81.6748C197.514 81.2249 197.319 80.882 197.064 80.6462C196.811 80.4104 196.507 80.2925 196.151 80.2925C195.616 80.2925 195.199 80.5559 194.898 81.0829C194.597 81.6075 194.447 82.3498 194.447 83.3099C194.447 83.9499 194.514 84.4938 194.649 84.9413C194.784 85.3889 194.977 85.7294 195.23 85.9628C195.485 86.1962 195.792 86.3129 196.151 86.3129ZM202.503 87.1069C201.959 87.1069 201.496 86.9589 201.113 86.663C200.731 86.3646 200.438 85.9327 200.236 85.3672C200.034 84.7993 199.933 84.1136 199.933 83.3099C199.933 82.511 200.034 81.8288 200.236 81.2634C200.441 80.6955 200.734 80.2624 201.117 79.964C201.502 79.6632 201.964 79.5128 202.503 79.5128C203.042 79.5128 203.503 79.6632 203.885 79.964C204.27 80.2624 204.564 80.6955 204.766 81.2634C204.971 81.8288 205.073 82.511 205.073 83.3099C205.073 84.1136 204.972 84.7993 204.77 85.3672C204.568 85.9327 204.275 86.3646 203.893 86.663C203.51 86.9589 203.047 87.1069 202.503 87.1069ZM202.503 86.3129C203.042 86.3129 203.461 86.053 203.759 85.5332C204.057 85.0135 204.207 84.2724 204.207 83.3099C204.207 82.6698 204.138 82.1248 204.001 81.6748C203.866 81.2249 203.671 80.882 203.416 80.6462C203.164 80.4104 202.859 80.2925 202.503 80.2925C201.969 80.2925 201.551 80.5559 201.251 81.0829C200.95 81.6075 200.799 82.3498 200.799 83.3099C200.799 83.9499 200.867 84.4938 201.002 84.9413C201.136 85.3889 201.33 85.7294 201.583 85.9628C201.838 86.1962 202.144 86.3129 202.503 86.3129ZM207.471 85.9952L207.414 86.3851C207.373 86.6594 207.31 86.9529 207.226 87.2657C207.144 87.5785 207.059 87.8733 206.97 88.15C206.881 88.4267 206.807 88.6469 206.749 88.8105H206.1C206.131 88.6565 206.172 88.4532 206.222 88.2006C206.273 87.9479 206.323 87.6652 206.374 87.3524C206.427 87.042 206.47 86.7243 206.504 86.3995L206.547 85.9952H207.471ZM211.188 87.1069C210.644 87.1069 210.181 86.9589 209.798 86.663C209.416 86.3646 209.123 85.9327 208.921 85.3672C208.719 84.7993 208.618 84.1136 208.618 83.3099C208.618 82.511 208.719 81.8288 208.921 81.2634C209.126 80.6955 209.419 80.2624 209.802 79.964C210.187 79.6632 210.649 79.5128 211.188 79.5128C211.727 79.5128 212.188 79.6632 212.57 79.964C212.955 80.2624 213.249 80.6955 213.451 81.2634C213.656 81.8288 213.758 82.511 213.758 83.3099C213.758 84.1136 213.657 84.7993 213.455 85.3672C213.253 85.9327 212.96 86.3646 212.578 86.663C212.195 86.9589 211.732 87.1069 211.188 87.1069ZM211.188 86.3129C211.727 86.3129 212.146 86.053 212.444 85.5332C212.742 85.0135 212.892 84.2724 212.892 83.3099C212.892 82.6698 212.823 82.1248 212.686 81.6748C212.551 81.2249 212.356 80.882 212.101 80.6462C211.849 80.4104 211.544 80.2925 211.188 80.2925C210.654 80.2925 210.236 80.5559 209.936 81.0829C209.635 81.6075 209.484 82.3498 209.484 83.3099C209.484 83.9499 209.552 84.4938 209.687 84.9413C209.821 85.3889 210.015 85.7294 210.268 85.9628C210.523 86.1962 210.829 86.3129 211.188 86.3129ZM217.54 87.1069C216.997 87.1069 216.533 86.9589 216.151 86.663C215.768 86.3646 215.476 85.9327 215.274 85.3672C215.072 84.7993 214.971 84.1136 214.971 83.3099C214.971 82.511 215.072 81.8288 215.274 81.2634C215.478 80.6955 215.772 80.2624 216.154 79.964C216.539 79.6632 217.001 79.5128 217.54 79.5128C218.079 79.5128 218.54 79.6632 218.923 79.964C219.308 80.2624 219.601 80.6955 219.804 81.2634C220.008 81.8288 220.11 82.511 220.11 83.3099C220.11 84.1136 220.009 84.7993 219.807 85.3672C219.605 85.9327 219.313 86.3646 218.93 86.663C218.547 86.9589 218.084 87.1069 217.54 87.1069ZM217.54 86.3129C218.079 86.3129 218.498 86.053 218.797 85.5332C219.095 85.0135 219.244 84.2724 219.244 83.3099C219.244 82.6698 219.175 82.1248 219.038 81.6748C218.904 81.2249 218.709 80.882 218.454 80.6462C218.201 80.4104 217.897 80.2925 217.54 80.2925C217.006 80.2925 216.589 80.5559 216.288 81.0829C215.987 81.6075 215.837 82.3498 215.837 83.3099C215.837 83.9499 215.904 84.4938 216.039 84.9413C216.174 85.3889 216.367 85.7294 216.62 85.9628C216.875 86.1962 217.182 86.3129 217.54 86.3129ZM223.893 87.1069C223.349 87.1069 222.886 86.9589 222.503 86.663C222.121 86.3646 221.828 85.9327 221.626 85.3672C221.424 84.7993 221.323 84.1136 221.323 83.3099C221.323 82.511 221.424 81.8288 221.626 81.2634C221.831 80.6955 222.124 80.2624 222.507 79.964C222.892 79.6632 223.354 79.5128 223.893 79.5128C224.432 79.5128 224.893 79.6632 225.275 79.964C225.66 80.2624 225.954 80.6955 226.156 81.2634C226.361 81.8288 226.463 82.511 226.463 83.3099C226.463 84.1136 226.362 84.7993 226.16 85.3672C225.957 85.9327 225.665 86.3646 225.283 86.663C224.9 86.9589 224.437 87.1069 223.893 87.1069ZM223.893 86.3129C224.432 86.3129 224.851 86.053 225.149 85.5332C225.447 85.0135 225.597 84.2724 225.597 83.3099C225.597 82.6698 225.528 82.1248 225.391 81.6748C225.256 81.2249 225.061 80.882 224.806 80.6462C224.553 80.4104 224.249 80.2925 223.893 80.2925C223.359 80.2925 222.941 80.5559 222.64 81.0829C222.34 81.6075 222.189 82.3498 222.189 83.3099C222.189 83.9499 222.257 84.4938 222.391 84.9413C222.526 85.3889 222.72 85.7294 222.973 85.9628C223.228 86.1962 223.534 86.3129 223.893 86.3129Z" fill="black"/>
</svg>
