<svg width="20" height="20" viewBox="0 0 20 20" fill="none" xmlns="http://www.w3.org/2000/svg">
<path d="M13.0629 8.94783C13.4023 8.63699 13.4255 8.10986 13.1146 7.77046C12.8038 7.43106 12.2767 7.40791 11.9372 7.71875L8.86052 10.5366L8.06292 9.80611C7.72352 9.49527 7.19639 9.51842 6.88554 9.85782C6.5747 10.1972 6.59784 10.7244 6.93725 11.0352L8.29768 12.2812C8.6162 12.5729 9.10483 12.5729 9.42335 12.2812L13.0629 8.94783Z" fill="#099137"/>
<path fill-rule="evenodd" clip-rule="evenodd" d="M10.0001 1.66663C5.39771 1.66663 1.66675 5.39759 1.66675 9.99996C1.66675 14.6023 5.39771 18.3333 10.0001 18.3333C14.6025 18.3333 18.3334 14.6023 18.3334 9.99996C18.3334 5.39759 14.6025 1.66663 10.0001 1.66663ZM3.33341 9.99996C3.33341 6.31806 6.31818 3.33329 10.0001 3.33329C13.682 3.33329 16.6667 6.31806 16.6667 9.99996C16.6667 13.6819 13.682 16.6666 10.0001 16.6666C6.31818 16.6666 3.33341 13.6819 3.33341 9.99996Z" fill="#099137"/>
</svg>
