<svg width="20" height="20" viewBox="0 0 20 20" fill="none" xmlns="http://www.w3.org/2000/svg">
<path d="M17.2556 2.74408C17.5811 3.06951 17.5811 3.59715 17.2556 3.92259L3.9223 17.2559C3.59687 17.5814 3.06923 17.5814 2.74379 17.2559C2.41836 16.9305 2.41836 16.4028 2.74379 16.0774L16.0771 2.74408C16.4026 2.41864 16.9302 2.41864 17.2556 2.74408Z" fill="#888888"/>
<path d="M13.166 4.4767C12.2274 4.03469 11.1691 3.75 9.9997 3.75C7.54629 3.75 5.58202 5.00308 4.18604 6.33307C2.78685 7.66611 1.87897 9.14973 1.51958 9.7915C1.28406 10.2121 1.25601 10.7143 1.44934 11.1603C1.58435 11.4718 1.81395 11.9544 2.15237 12.5143C2.39041 12.9082 2.9027 13.0346 3.29659 12.7965C3.69049 12.5585 3.81683 12.0462 3.57879 11.6523C3.3066 11.2019 3.11772 10.8124 3.00316 10.5537C3.34129 9.95778 4.14208 8.67693 5.33569 7.53975C6.56858 6.36513 8.14141 5.41667 9.9997 5.41667C10.6681 5.41667 11.2995 5.53937 11.8915 5.75116L13.166 4.4767Z" fill="#888888"/>
<path d="M14.7418 7.61491C15.8923 8.73288 16.6655 9.97087 16.9962 10.5537C16.8817 10.8124 16.6928 11.2019 16.4206 11.6523C16.1826 12.0462 16.3089 12.5585 16.7028 12.7965C17.0967 13.0346 17.609 12.9082 17.847 12.5143C18.1855 11.9544 18.4151 11.4718 18.5501 11.1603C18.7434 10.7143 18.7153 10.2121 18.4798 9.7915C18.1297 9.16625 17.2589 7.74193 15.9204 6.43629L14.7418 7.61491Z" fill="#888888"/>
<path d="M9.99971 6.66667C10.3026 6.66667 10.5979 6.69898 10.8824 6.76034L9.1675 8.47519C8.45626 8.7262 7.89258 9.28987 7.64157 10.0011L5.92672 11.716C5.86536 11.4315 5.83305 11.1362 5.83305 10.8333C5.83305 8.53215 7.69853 6.66667 9.99971 6.66667Z" fill="#888888"/>
<path d="M9.99971 13.3333C9.70732 13.3333 9.42665 13.2831 9.16585 13.1909L7.91498 14.4418C8.52815 14.7968 9.2402 15 9.99971 15C12.3009 15 14.1664 13.1345 14.1664 10.8333C14.1664 10.0738 13.9632 9.36177 13.6081 8.74859L12.3573 9.99947C12.4495 10.2603 12.4997 10.5409 12.4997 10.8333C12.4997 12.214 11.3804 13.3333 9.99971 13.3333Z" fill="#888888"/>
</svg>
