<svg width="16" height="16" viewBox="0 0 16 16" fill="none" xmlns="http://www.w3.org/2000/svg">
<g clip-path="url(#clip0_55_2780)">
<path d="M15 2H13V0H12V2H10V3H12V5H13V3H15V2Z" fill="#EEEEEE"/>
<path d="M5.75 5.50004C5.50277 5.50004 5.2611 5.57335 5.05554 5.7107C4.84998 5.84806 4.68976 6.04328 4.59515 6.27169C4.50054 6.50009 4.47579 6.75143 4.52402 6.9939C4.57225 7.23638 4.6913 7.45911 4.86612 7.63392C5.04093 7.80874 5.26366 7.92779 5.50614 7.97602C5.74861 8.02425 5.99995 7.9995 6.22836 7.90489C6.45676 7.81028 6.65199 7.65006 6.78934 7.4445C6.92669 7.23894 7 6.99727 7 6.75004C7.00133 6.58552 6.96991 6.42237 6.90756 6.27011C6.84522 6.11786 6.75319 5.97953 6.63685 5.86319C6.52051 5.74685 6.38219 5.65482 6.22993 5.59248C6.07767 5.53013 5.91452 5.49871 5.75 5.50004Z" fill="#EEEEEE"/>
<path d="M10.25 5.50004C10.0028 5.50004 9.7611 5.57335 9.55554 5.7107C9.34998 5.84806 9.18976 6.04328 9.09515 6.27169C9.00054 6.50009 8.97579 6.75143 9.02402 6.9939C9.07225 7.23638 9.1913 7.45911 9.36612 7.63392C9.54093 7.80874 9.76366 7.92779 10.0061 7.97602C10.2486 8.02425 10.4999 7.9995 10.7284 7.90489C10.9568 7.81028 11.152 7.65006 11.2893 7.4445C11.4267 7.23894 11.5 6.99727 11.5 6.75004C11.5013 6.58552 11.4699 6.42237 11.4076 6.27011C11.3452 6.11786 11.2532 5.97953 11.1369 5.86319C11.0205 5.74685 10.8822 5.65482 10.7299 5.59248C10.5777 5.53013 10.4145 5.49871 10.25 5.50004Z" fill="#EEEEEE"/>
<path d="M4.5 10C4.85942 10.6085 5.37126 11.1127 5.98504 11.463C6.59881 11.8133 7.2933 11.9976 8 11.9976C8.7067 11.9976 9.40119 11.8133 10.015 11.463C10.6287 11.1127 11.1406 10.6085 11.5 10H4.5Z" fill="#EEEEEE"/>
<path d="M13.91 7C14.115 8.21256 13.9424 9.45882 13.4156 10.5701C12.8889 11.6813 12.0334 12.6038 10.9649 13.2128C9.89653 13.8217 8.66681 14.0877 7.44225 13.9746C6.2177 13.8615 5.05746 13.3749 4.11862 12.5806C3.17977 11.7863 2.50767 10.7227 2.19329 9.53383C1.87891 8.34493 1.93745 7.08814 2.36098 5.93361C2.78451 4.77908 3.55257 3.78257 4.56118 3.07899C5.56979 2.37542 6.77024 1.99875 8 2V1C6.61553 1 5.26216 1.41054 4.11101 2.17971C2.95987 2.94888 2.06266 4.04213 1.53285 5.32122C1.00303 6.6003 0.86441 8.00776 1.13451 9.36563C1.4046 10.7235 2.07129 11.9708 3.05026 12.9497C4.02922 13.9287 5.2765 14.5954 6.63437 14.8655C7.99224 15.1356 9.3997 14.997 10.6788 14.4672C11.9579 13.9373 13.0511 13.0401 13.8203 11.889C14.5895 10.7378 15 9.38447 15 8C14.9961 7.66523 14.9694 7.33112 14.92 7H13.91Z" fill="#EEEEEE"/>
</g>
<defs>
<clipPath id="clip0_55_2780">
<rect width="16" height="16" fill="white"/>
</clipPath>
</defs>
</svg>
