<svg width="16" height="16" viewBox="0 0 16 16" fill="none" xmlns="http://www.w3.org/2000/svg">
<path fill-rule="evenodd" clip-rule="evenodd" d="M12.7142 12.7133C10.6767 14.7509 7.65977 15.1912 5.19086 14.0494C4.82639 13.9026 4.52758 13.784 4.2435 13.784C3.45224 13.7887 2.46736 14.556 1.95549 14.0447C1.44362 13.5328 2.21143 12.5471 2.21143 11.7511C2.21143 11.467 2.09753 11.1735 1.9508 10.8083C0.808472 8.33979 1.24932 5.32183 3.28676 3.28484C5.88765 0.682995 10.1133 0.682995 12.7142 3.28417C15.3197 5.89004 15.3151 10.1121 12.7142 12.7133Z" stroke="#EEEEEE" stroke-linecap="round" stroke-linejoin="round"/>
<path d="M10.6262 8.27535H10.6322" stroke="#EEEEEE" stroke-width="2" stroke-linecap="round" stroke-linejoin="round"/>
<path d="M7.95362 8.27535H7.95962" stroke="#EEEEEE" stroke-width="2" stroke-linecap="round" stroke-linejoin="round"/>
<path d="M5.28077 8.27535H5.28677" stroke="#EEEEEE" stroke-width="2" stroke-linecap="round" stroke-linejoin="round"/>
</svg>
